<svg width="58" height="58" viewBox="0 0 58 58" fill="none" xmlns="http://www.w3.org/2000/svg">
<path d="M0 18.7519V58H58V18.7519L28.7914 0L0 18.7519Z" fill="url(#paint0_linear_1_1958)"/>
<mask id="mask0_1_1958" style="mask-type:alpha" maskUnits="userSpaceOnUse" x="0" y="0" width="58" height="58">
<rect width="58" height="58" fill="#D9D9D9"/>
</mask>
<g mask="url(#mask0_1_1958)">
<path d="M21.2409 24.6025C21.2194 24.4884 21.1849 24.3786 21.1462 24.2687C21.2431 23.7971 21.2259 23.2566 21.0923 22.6494C21.0084 22.2704 20.8899 21.8936 20.7736 21.5296C20.6574 21.1593 20.5346 20.7781 20.4528 20.3948C20.3042 19.7036 20.2741 18.9822 20.2461 18.2823C20.2353 18.0412 20.2267 17.8021 20.2116 17.5631C20.203 17.4167 20.1901 17.2681 20.1772 17.1217C20.2159 15.7198 20.1944 14.3137 19.7874 12.9786C19.3481 11.5401 18.2327 10.4268 16.8502 9.87338C16.1568 9.5956 15.4074 9.45563 14.6602 9.47285C13.8958 9.49224 13.155 9.53961 12.425 9.79586C12.313 9.83462 12.201 9.87769 12.0891 9.92506C11.2557 10.2761 10.502 10.8252 9.93353 11.5315C8.95805 12.4747 8.33357 13.9304 8.07731 15.8706C7.99979 16.4649 7.95242 17.0721 7.90504 17.66C7.81891 18.769 7.73062 19.9146 7.42699 20.9956C7.3344 21.3251 7.22027 21.6567 7.11045 21.9754C6.94464 22.4577 6.77021 22.9573 6.669 23.4698C6.58071 23.9091 6.55918 24.3247 6.59794 24.7102C6.33953 25.3067 6.1608 25.9139 6.26417 26.547C6.45582 27.7335 7.60142 28.5583 8.76855 28.8533C10.1338 29.1978 11.5701 28.9997 12.9633 28.8016C13.8118 28.6789 14.6624 28.5583 15.5108 28.4355C16.146 28.3451 16.8287 28.231 17.283 27.7766C17.8881 27.1736 17.9936 26.0582 18.8033 25.7804C19.4945 25.5435 20.3667 26.0862 20.9395 25.6318C21.2345 25.3971 21.3098 24.9707 21.2409 24.6025ZM8.24958 17.2853C8.1333 19.288 8.12684 21.3595 7.31932 23.1964C7.14705 23.5904 6.93602 23.9823 6.74652 24.3786C6.74652 24.0383 6.78744 23.7282 6.83481 23.5021C6.93602 23.0004 7.10614 22.5073 7.27195 22.0292C7.38392 21.7062 7.49805 21.3724 7.5928 21.0387C7.90074 19.9404 7.98902 18.7862 8.07731 17.6708C8.12253 17.0851 8.16991 16.48 8.24743 15.8921C8.39171 14.7939 8.65873 13.855 9.03772 13.0819C8.50584 14.3869 8.33572 15.8619 8.25174 17.2853H8.24958ZM20.119 19.1458C20.1492 19.5765 20.1944 20.0072 20.287 20.4314C20.371 20.8233 20.4937 21.2088 20.6121 21.5835C20.7263 21.9431 20.8447 22.3156 20.9265 22.6882C21.0299 23.1576 21.0601 23.584 21.0213 23.9673C20.9588 23.8294 20.8921 23.6938 20.8296 23.5581C20.2095 22.1907 20.1018 20.6618 20.119 19.148V19.1458Z" fill="#2A1543"/>
<path d="M15.134 19.777C17.8838 19.7038 19.2405 17.3716 19.1629 14.54C19.0876 11.7104 17.6082 9.45366 14.8583 9.52688C12.1085 9.60009 9.12818 11.9774 9.20355 14.807C9.27892 17.6365 12.3819 19.8502 15.1318 19.777H15.134Z" fill="#2A1543"/>
<path d="M12.1666 12.4682C13.5038 10.0176 18.209 10.8532 18.5729 12.802C19.3244 16.8116 18.7538 18.4567 17.6405 19.4042C16.3506 20.5003 15.5086 20.3603 15.5086 22.6644C15.022 23.8897 13.1507 24.0577 12.5456 22.6644C12.5822 19.6131 11.5356 17.3025 11.5356 17.3025C11.5356 17.3025 11.6132 13.4803 12.1644 12.4682H12.1666Z" fill="#DB7B61"/>
<path d="M15.0391 16.2475C15.0391 16.4133 15.1747 16.549 15.3405 16.549C15.5063 16.549 15.642 16.4133 15.642 16.2475C15.642 16.0817 15.5063 15.946 15.3405 15.946C15.1747 15.946 15.0391 16.0817 15.0391 16.2475Z" fill="black"/>
<path d="M15.4526 16.2756C15.5132 16.2756 15.5624 16.2264 15.5624 16.1657C15.5624 16.1051 15.5132 16.0559 15.4526 16.0559C15.3919 16.0559 15.3428 16.1051 15.3428 16.1657C15.3428 16.2264 15.3919 16.2756 15.4526 16.2756Z" fill="white"/>
<path d="M17.3735 16.2475C17.3735 16.4133 17.5092 16.549 17.675 16.549C17.8408 16.549 17.9765 16.4133 17.9765 16.2475C17.9765 16.0817 17.8408 15.946 17.675 15.946C17.5092 15.946 17.3735 16.0817 17.3735 16.2475Z" fill="black"/>
<path d="M17.6748 16.1657C17.6748 16.226 17.7243 16.2756 17.7846 16.2756C17.8449 16.2756 17.8944 16.226 17.8944 16.1657C17.8944 16.1054 17.8449 16.0559 17.7846 16.0559C17.7243 16.0559 17.6748 16.1054 17.6748 16.1657Z" fill="white"/>
<path d="M17.1711 15.0673C17.5501 14.8046 18.041 14.8197 18.3985 15.1276C18.4652 15.1858 18.476 15.3021 18.4265 15.3774C18.3748 15.455 18.2757 15.4679 18.209 15.4097C18.0626 15.2827 17.8752 15.2267 17.6943 15.2396C17.6017 15.2461 17.5113 15.2719 17.4273 15.3128C17.3519 15.3494 17.2787 15.414 17.1947 15.3667C17.1754 15.3559 17.1581 15.3387 17.1431 15.3171C17.0957 15.2482 17.1 15.1169 17.1711 15.0673Z" fill="#2A1543"/>
<path d="M15.9953 15.0673C15.5603 14.8046 14.9961 14.8197 14.587 15.1276C14.5095 15.1858 14.4965 15.3021 14.5547 15.3774C14.615 15.455 14.727 15.4679 14.8045 15.4097C14.9724 15.2827 15.1856 15.2289 15.3945 15.2418C15.5 15.2482 15.6034 15.2741 15.7024 15.315C15.7886 15.3516 15.8726 15.4162 15.9695 15.3667C15.9931 15.3559 16.0125 15.3387 16.0276 15.3171C16.0814 15.2482 16.0771 15.1169 15.9953 15.0673Z" fill="#2A1543"/>
<path d="M16.6262 17.9615C16.7899 17.9615 16.9621 17.9249 17.128 17.8388C17.2055 17.7979 17.2356 17.7031 17.1947 17.6256C17.1538 17.5481 17.059 17.5179 16.9815 17.5589C16.5831 17.7677 16.1374 17.5524 16.0103 17.378C15.9587 17.3091 15.8596 17.2918 15.7907 17.3435C15.7196 17.3952 15.7046 17.4943 15.7562 17.5632C15.9048 17.7677 16.2494 17.9594 16.6284 17.9594L16.6262 17.9615Z" fill="#A5422B"/>
<path d="M16.9986 17.0659C17.0159 17.0659 17.0309 17.0551 17.0374 17.0379C17.1128 16.7816 17.0245 16.6933 16.9384 16.6653C16.8501 16.6373 16.7445 16.6589 16.6261 16.7342C16.6067 16.745 16.6024 16.7709 16.6132 16.7881C16.624 16.8075 16.6498 16.8118 16.667 16.801C16.7661 16.7407 16.8479 16.7192 16.9125 16.7407C16.99 16.7665 17.0073 16.8591 16.9599 17.0163C16.9534 17.0379 16.9663 17.0594 16.9879 17.0659C16.9922 17.0659 16.9943 17.0659 16.9986 17.0659Z" fill="#A5422B"/>
<path d="M10.5066 17.3888C10.9092 17.869 11.5466 18.0004 11.9278 17.6795C12.3089 17.3587 12.2917 16.7105 11.889 16.2303C11.4864 15.7501 10.849 15.6187 10.4678 15.9396C10.0867 16.2604 10.1039 16.9086 10.5066 17.3888Z" fill="#DB7B61"/>
<path d="M10.7302 16.1744C10.9025 16.0839 11.1307 16.0882 11.3418 16.1873C11.4473 16.2368 11.5227 16.295 11.5765 16.3682C11.6454 16.4651 11.6648 16.5878 11.626 16.6869C11.5916 16.7752 11.5205 16.8333 11.4581 16.885C11.4128 16.9216 11.3698 16.956 11.3461 16.9991C11.3095 17.0637 11.3181 17.152 11.3676 17.208C11.4172 17.2618 11.5054 17.2812 11.5722 17.2489C11.611 17.2295 11.6583 17.2489 11.6777 17.2877C11.6949 17.3264 11.6777 17.3738 11.6389 17.3932C11.5959 17.4126 11.5485 17.4233 11.5011 17.4233C11.4085 17.4233 11.3138 17.3846 11.2492 17.3157C11.1544 17.2101 11.1351 17.0443 11.2083 16.9216C11.247 16.8548 11.3052 16.8075 11.3569 16.7644C11.4085 16.7213 11.4581 16.6826 11.4774 16.633C11.4968 16.5835 11.4839 16.5168 11.4451 16.4629C11.4301 16.4414 11.4085 16.422 11.3848 16.4026C11.3073 16.4026 11.2083 16.4263 11.1587 16.4801C11.1028 16.5404 11.0769 16.6287 11.0898 16.7106C11.0963 16.7536 11.0683 16.7945 11.0252 16.801C11.0209 16.801 11.0166 16.801 11.0123 16.801C10.9736 16.801 10.9413 16.773 10.9348 16.7342C10.9133 16.605 10.9542 16.4694 11.0425 16.3725C11.0748 16.3359 11.1178 16.3122 11.1609 16.2928C11.0295 16.2583 10.9025 16.2648 10.8013 16.3165C10.6785 16.3811 10.5859 16.5491 10.6484 16.6869C10.6656 16.7256 10.6484 16.773 10.6096 16.7924C10.5709 16.8096 10.5235 16.7924 10.5041 16.7536C10.4115 16.5534 10.5127 16.2906 10.7259 16.1787L10.7302 16.1744Z" fill="#A5422B"/>
<path d="M12.2095 15.6855C14.1928 15.005 15.8099 13.334 16.4237 11.3292C16.8565 12.8172 17.8104 14.1479 19.0788 15.0351C19.068 13.8508 19.0336 12.5846 18.3552 11.6134C17.8987 10.9588 17.1838 10.5087 16.4129 10.302C15.642 10.0953 14.8215 10.1211 14.0442 10.2977C13.241 10.4786 12.4657 10.8253 11.8391 11.3615C11.2125 11.8977 10.7452 12.632 10.5966 13.4438C10.4932 14.0123 10.5535 14.6131 10.784 15.145C10.883 15.3754 11.0165 15.6833 11.2534 15.7802C11.5441 15.9008 11.9296 15.7802 12.2095 15.6855Z" fill="#2A1543"/>
<path d="M12.0463 15.9245C11.5596 15.9245 11.1074 15.7199 10.8554 15.3818C10.8274 15.3452 10.8361 15.2914 10.8727 15.2634C10.9093 15.2354 10.9631 15.244 10.9911 15.2806C11.2194 15.5864 11.6371 15.7694 12.0915 15.7544C12.4619 15.7436 12.8473 15.6187 13.306 15.3646C14.8306 14.5183 15.9073 12.9162 16.1161 11.1849C16.1226 11.1375 16.1657 11.1052 16.2109 11.1117C16.2583 11.1181 16.2906 11.159 16.2841 11.2064C16.0688 12.9916 14.9598 14.6411 13.3878 15.5153C12.9055 15.7823 12.4942 15.9137 12.0958 15.9266C12.0786 15.9266 12.0613 15.9266 12.0441 15.9266L12.0463 15.9245Z" fill="#2A1543"/>
<path d="M10.3127 35.4105L9.87983 24.9106C9.83676 23.8877 10.5431 22.9855 11.5465 22.7788L14.1241 22.249L16.7017 22.7788C17.7052 22.9855 18.4115 23.8877 18.3685 24.9106L17.9356 35.4105L20.3022 41.5713H7.94824L10.3148 35.4105H10.3127Z" fill="#DB7B61"/>
<path d="M16.8115 61.8087C16.1612 56.6901 14.9617 51.2292 14.9165 45.6454L20.3 41.5691C21.6372 46.6855 20.6962 53.6474 19.486 61.8087H16.8115Z" fill="#DB7B61"/>
<path d="M8.7709 61.8087C8.12058 56.6901 7.40997 50.8588 7.36475 45.2751L12.2594 41.5691C13.5966 46.6855 12.6556 53.6474 11.4454 61.8087H8.7709Z" fill="#DB7B61"/>
<path d="M10.1917 35.7247C10.1917 35.7247 7.95868 40.5913 7.2696 44.4459C6.59774 48.1949 6.67742 56.0591 6.47931 59.8081C6.2812 63.5572 4.90088 68.426 4.90088 68.426C4.90088 68.426 7.46555 70.926 12.203 70.532C12.203 70.532 13.8482 61.7806 13.8482 59.61C13.8482 57.4394 14.1238 44.7409 14.1238 44.7409C14.1238 44.7409 15.6247 57.5708 15.6915 60.0041C15.7582 62.4374 14.9163 70.4329 14.9163 70.4329C14.9163 70.4329 18.4866 71.3869 21.8092 70.3016C21.8092 70.3016 21.7791 62.1381 21.8458 58.8649C21.9126 55.5918 21.469 46.2117 20.4612 41.9135C19.4534 37.6154 18.4543 35.49 18.4543 35.49L10.1917 35.7269V35.7247Z" fill="#402664"/>
<g style="mix-blend-mode:multiply">
<path d="M21.8054 68.7922C21.5922 68.8482 21.379 68.8999 21.1637 68.9473C21.2757 62.2266 21.1637 55.4607 20.8148 48.7723C20.6598 45.7726 20.4315 42.8505 19.5702 40.1673C19.7295 40.2169 19.891 40.2556 20.0525 40.2858C20.0353 40.2233 20.0202 40.163 20.003 40.1027C19.8329 40.0661 19.6649 40.0231 19.5013 39.9671C19.2429 39.1962 18.9349 38.4446 18.5538 37.7189C18.7691 37.6285 18.9823 37.5273 19.1912 37.4218C19.1718 37.3679 19.1546 37.3141 19.1352 37.2603C18.6184 37.5208 18.08 37.7383 17.5309 37.9128C17.3393 37.439 17.195 36.9416 17.1067 36.4398C17.0981 36.3946 17.055 36.3623 17.0077 36.3709C16.9624 36.3795 16.9301 36.4226 16.9388 36.47C17.0292 36.9803 17.1756 37.4821 17.3694 37.9623C17.2295 38.0032 17.0895 38.042 16.9474 38.0764C16.7966 37.5833 16.6954 37.0751 16.6437 36.5647C16.6394 36.5174 16.5985 36.4851 16.5511 36.4894C16.5038 36.4937 16.4693 36.5346 16.4758 36.582C16.5275 37.1031 16.6308 37.6199 16.7837 38.1195C16.0796 38.2853 15.356 38.3779 14.626 38.3951C13.5622 38.4209 12.5071 38.2831 11.4928 37.9967L12.0054 36.4463C12.0204 36.4011 11.9967 36.3537 11.9515 36.3386C11.9063 36.3236 11.8589 36.3472 11.8439 36.3925L11.3292 37.9494C11.1763 37.9041 11.0256 37.8546 10.877 37.8008L11.4261 36.2353C11.4412 36.19 11.4175 36.1427 11.3744 36.1276C11.3292 36.1125 11.2818 36.1362 11.2667 36.1793L10.7198 37.7448C10.3193 37.5962 9.92949 37.4239 9.54835 37.228C9.52681 37.2797 9.50528 37.3313 9.48375 37.3852C9.60003 37.4433 9.71631 37.5036 9.83475 37.5574C9.48805 38.3886 9.19519 39.2349 8.94755 40.092C8.76882 40.1716 8.58363 40.2363 8.39629 40.2879C8.37475 40.3525 8.35322 40.4171 8.33169 40.4817C8.52118 40.4344 8.70637 40.3741 8.88941 40.3009C7.68136 44.6248 7.606 49.2331 7.53278 53.7164C7.52632 54.0846 7.51986 54.4529 7.5134 54.8211C7.43588 59.1171 7.22485 63.5681 5.93497 67.6509C5.68949 67.5282 5.44616 67.399 5.20713 67.2633C5.19206 67.3215 5.17698 67.3796 5.16406 67.4356C5.40093 67.5691 5.64211 67.694 5.88545 67.8146C5.76701 68.1785 5.63996 68.5403 5.5043 68.8978C5.54952 68.9301 5.59905 68.9624 5.64857 68.9947C5.78854 68.6286 5.9199 68.2604 6.04049 67.8878C8.0216 68.8396 10.1965 69.3758 12.4059 69.4361C12.4167 69.3801 12.4253 69.3241 12.436 69.266C10.231 69.2078 8.06467 68.676 6.09002 67.7242C7.39281 63.6155 7.606 59.1386 7.68352 54.8211C7.68998 54.4529 7.69644 54.0846 7.7029 53.7164C7.77611 49.1986 7.85364 44.5538 9.08968 40.2104C10.0113 39.7797 10.7822 39.0153 11.1785 38.0743C11.9989 38.3305 12.8473 38.4877 13.7087 38.5415C13.6398 40.1221 13.7345 41.7156 13.9908 43.2768C14.0403 43.5826 14.1609 43.7527 14.3439 43.7829C14.359 43.785 14.3762 43.7872 14.3913 43.7872C14.5248 43.7872 14.6605 43.6989 14.7337 43.5611C14.8026 43.4319 14.8112 43.2833 14.8177 43.1648C14.9167 41.6338 14.9426 40.0812 14.8995 38.5502C15.6467 38.5135 16.3832 38.3994 17.1003 38.2121C17.602 39.0863 18.4246 39.7539 19.3656 40.0984C20.2528 42.7966 20.4854 45.7489 20.6426 48.7787C20.9914 55.4757 21.1034 62.2503 20.9914 68.9817C19.0405 69.3801 17.012 69.3801 15.061 68.9774C15.0545 69.0356 15.0502 69.0937 15.0438 69.1475C16.0279 69.35 17.0292 69.449 18.0305 69.449C19.0318 69.449 20.0138 69.3478 20.9871 69.1519C20.9785 69.6105 20.9677 70.0714 20.9591 70.53C21.0151 70.5171 21.0732 70.5042 21.1292 70.4891C21.1378 70.0304 21.1486 69.5739 21.1572 69.1152C21.3726 69.07 21.5879 69.0162 21.8011 68.9624C21.8011 68.9064 21.8011 68.8482 21.8011 68.7879L21.8054 68.7922ZM9.15212 39.9929C9.389 39.1919 9.66463 38.4037 9.98764 37.6285C10.3236 37.7792 10.666 37.9128 11.0148 38.0269C10.6509 38.8753 9.97041 39.573 9.14997 39.9951L9.15212 39.9929ZM14.6497 43.1562C14.6432 43.2639 14.6346 43.3888 14.583 43.4835C14.542 43.5611 14.4559 43.63 14.3719 43.6171C14.2427 43.5955 14.1846 43.4082 14.1587 43.2531C13.9046 41.7027 13.8099 40.1221 13.8788 38.5523C14.0446 38.5609 14.2104 38.5652 14.3762 38.5652C14.4602 38.5652 14.5463 38.5652 14.6303 38.5631C14.6648 38.5631 14.6971 38.5609 14.7315 38.5588C14.7746 40.0855 14.7466 41.6316 14.6497 43.1562ZM17.2747 38.1668C17.6558 38.0592 18.0305 37.9321 18.3987 37.7835C18.7562 38.464 19.0491 39.1682 19.2967 39.8896C18.4612 39.5515 17.7333 38.9464 17.2725 38.1668H17.2747Z" fill="#A9A3CC"/>
<path d="M13.9327 38.0075C13.9865 38.0915 14.0856 38.1367 14.1803 38.1669C14.2708 38.197 14.3655 38.2207 14.4581 38.2057C14.807 38.1475 14.8371 37.6307 14.5249 37.5015C14.2536 37.3895 13.7238 37.6802 13.9305 38.0075H13.9327Z" fill="#A9A3CC"/>
</g>
<path d="M28.2265 28.5734L17.7029 25.2507C17.0311 25.0397 16.6607 24.3226 16.8717 23.6529C17.0828 22.981 17.7998 22.6107 18.4695 22.8217L28.9931 26.1444L28.2265 28.5734Z" fill="#DB7B61"/>
<path d="M27.5825 26.222L36.252 17.5784L37.3503 18.5883L29.4581 27.9469L27.5825 26.222Z" fill="#DB7B61"/>
<path d="M9.44042 35.4879L11.4474 24.637C11.5744 23.9457 11.1179 23.2803 10.4267 23.1533C9.73543 23.0262 9.07004 23.4828 8.94299 24.174L6.93604 35.0249L9.44257 35.4879H9.44042Z" fill="#DB7B61"/>
<path d="M6.96855 34.9194L2.33447 46.2505L3.6911 46.875L9.28343 35.9854L6.96855 34.9194Z" fill="#DB7B61"/>
<path d="M12.324 22.4383C12.324 22.4383 12.2164 24.4991 14.1845 24.4561C16.1527 24.413 15.7242 22.3953 15.7242 22.3953C15.7242 22.3953 16.3616 22.2876 17.2122 22.5266C18.0606 22.7657 18.6313 24.8954 18.7174 25.8601C18.8057 26.8248 20.0331 27.8563 19.8802 29.4131C19.7273 30.97 18.9586 30.7224 18.7626 31.9111C18.5645 33.0976 18.9241 34.1829 19.1675 36.3879C19.1675 36.3879 15.2289 38.3389 9.4751 36.3879C9.4751 36.3879 10.0221 32.8026 9.89716 31.0928C9.77226 29.383 9.98545 24.0232 10.429 23.1554C10.7262 22.5719 12.3262 22.4405 12.3262 22.4405L12.324 22.4383Z" fill="#F9B110"/>
<path d="M12.3237 22.4384C12.3237 22.4384 9.51567 22.2188 8.81582 24.0168C7.94586 26.2542 7.42259 29.8503 7.15987 31.123C6.89716 32.3956 6.47941 34.1571 6.21669 34.9215C5.95398 35.686 3.15674 41.4528 3.15674 41.4528C3.15674 41.4528 4.22051 43.0096 6.36958 43.0096C6.36958 43.0096 9.92266 36.4741 10.011 34.127C10.0992 31.7798 12.3237 22.4384 12.3237 22.4384Z" fill="#F9B110"/>
<path d="M15.7238 22.3931C15.7238 22.3931 17.2204 22.2467 18.9151 22.7613C20.6099 23.276 27.1066 25.298 27.7139 25.298C28.3211 25.298 31.562 21.7126 31.562 21.7126C31.562 21.7126 33.2567 22.9465 33.8811 24.1804C33.8811 24.1804 30.7394 29.2473 28.4029 29.0492C26.0665 28.8511 18.2045 26.4673 18.2045 26.4673L16.4646 23.2437L15.7217 22.3931H15.7238Z" fill="#F9B110"/>
<g style="mix-blend-mode:multiply">
<path d="M3.61338 40.5098C3.58753 40.5636 3.56169 40.6153 3.53801 40.6648C3.64137 40.7445 3.74688 40.822 3.85455 40.8974L3.40234 41.7393C3.43895 41.7781 3.48202 41.8212 3.52724 41.8664L3.99668 40.9943C4.14741 41.0933 4.30246 41.1881 4.45965 41.2764C4.31538 41.6058 4.15818 41.9288 3.98806 42.2475C4.03328 42.2798 4.08066 42.3121 4.13019 42.3444C4.30246 42.0214 4.46396 41.6941 4.61039 41.3604C4.77189 41.4465 4.9377 41.5283 5.10567 41.6037L4.69437 42.6567C4.7439 42.6804 4.79989 42.6998 4.85157 42.7213L5.26071 41.6726C5.42222 41.7393 5.58587 41.8018 5.75168 41.8599L5.27579 42.8656C5.32962 42.8806 5.38991 42.8914 5.4459 42.9043L5.91319 41.9116C6.02947 41.9482 6.1479 41.9827 6.26849 42.015L5.87012 42.9775C5.92826 42.984 5.9864 42.9905 6.0467 42.9969L6.43646 42.058C6.56781 42.0903 6.70132 42.1162 6.83483 42.142C6.86067 42.0903 6.88867 42.0387 6.91666 41.9848C5.71723 41.7738 4.57594 41.2634 3.61768 40.5141L3.61338 40.5098Z" fill="#E2CAB0"/>
<path d="M9.53079 35.4578C9.50926 35.4988 9.52433 35.5504 9.56524 35.5741C9.57816 35.5806 9.59108 35.5849 9.60616 35.5849C9.63631 35.5849 9.66645 35.5698 9.68153 35.5397C10.1703 34.6417 10.2866 33.5952 10.3577 32.6843C10.5063 30.7699 10.4955 28.819 10.4847 26.9326C10.4847 26.8852 10.446 26.8508 10.3986 26.8486C10.3512 26.8486 10.3146 26.8874 10.3146 26.9348C10.3254 28.819 10.3362 30.7656 10.1897 32.6735C10.1208 33.5672 10.0067 34.5922 9.5351 35.46L9.53079 35.4578Z" fill="#E2CAB0"/>
<path d="M28.1513 25.6967C28.1513 25.7441 28.1901 25.7807 28.2353 25.7807C28.2827 25.7807 28.3193 25.7419 28.3193 25.6946C28.315 25.4792 28.2525 25.2682 28.1449 25.083C28.0953 25.1196 28.048 25.1498 28.0049 25.1778C28.0953 25.335 28.147 25.5137 28.1492 25.6967H28.1513Z" fill="#E2CAB0"/>
<path d="M33.1493 24.7599L33.7135 23.8834C33.6812 23.8318 33.6467 23.7801 33.6101 23.7284L33.0503 24.5962C32.9727 24.4692 32.8888 24.3421 32.8026 24.2215C33.0395 24.0105 33.2634 23.7822 33.4723 23.541C33.4379 23.4958 33.4013 23.4506 33.3647 23.4054C33.1579 23.6444 32.9361 23.8727 32.7014 24.0815C32.6002 23.9459 32.4925 23.8124 32.3827 23.6832L33.1149 23.1125C33.0761 23.0695 33.0373 23.0285 32.9986 22.9876L32.2707 23.5561C32.1674 23.442 32.0576 23.33 31.9477 23.2223C31.952 23.218 31.9585 23.2159 31.9628 23.2116L32.5873 22.5742C32.5442 22.5354 32.5033 22.4967 32.4624 22.4579L31.8401 23.091C31.8401 23.091 31.8336 23.1018 31.8293 23.1061C31.7195 23.0049 31.6075 22.908 31.4912 22.8132C31.7345 22.628 31.9585 22.4191 32.1631 22.1909C32.1178 22.1521 32.0748 22.1155 32.0339 22.0811C31.8293 22.3093 31.601 22.5182 31.3556 22.7034C31.2156 22.5957 31.0713 22.4945 30.9249 22.3976C30.8861 22.4385 30.8474 22.4794 30.8086 22.5225C31.8207 23.1857 32.6476 24.1117 33.1902 25.1927C33.229 25.1389 33.2656 25.0872 33.3022 25.0355C33.2527 24.9407 33.201 24.846 33.1472 24.7534L33.1493 24.7599Z" fill="#E2CAB0"/>
<path d="M27.6342 26.3727C27.6342 26.3727 27.6385 26.3727 27.6407 26.3727C27.6837 26.3727 27.7203 26.3404 27.7247 26.2952C27.7526 25.9636 27.7462 25.6298 27.7074 25.3003C27.6708 25.3003 27.6127 25.2917 27.5352 25.2788C27.5761 25.6104 27.5847 25.9464 27.5545 26.2823C27.5502 26.3297 27.5847 26.3706 27.6321 26.3749L27.6342 26.3727Z" fill="#E2CAB0"/>
<path d="M18.8272 26.4028C18.8703 26.3834 18.8875 26.3318 18.8682 26.2908L18.0456 24.51C18.0262 24.4669 17.9767 24.4497 17.9336 24.4691C17.8905 24.4885 17.8733 24.5402 17.8927 24.5811L18.7153 26.3619C18.7303 26.3921 18.7605 26.4114 18.7928 26.4114C18.8057 26.4114 18.8165 26.4093 18.8272 26.4028Z" fill="#E2CAB0"/>
<path d="M16.1179 24.3571C16.5378 23.808 16.6325 23.1211 16.6347 22.3846C16.5766 22.3825 16.5184 22.3803 16.4646 22.3782C16.4646 22.6107 16.4538 22.839 16.428 23.0586L15.7647 22.8691C15.7647 22.9251 15.7604 22.9833 15.7561 23.0436L16.4043 23.2288C16.3591 23.4915 16.2837 23.7391 16.1674 23.9674L15.6377 23.5798C15.6162 23.6336 15.5925 23.6853 15.5645 23.737L16.0834 24.116C16.0533 24.1633 16.021 24.2107 15.9865 24.2559C15.8595 24.4217 15.7087 24.5574 15.5472 24.6672L15.2242 24.1418C15.1812 24.1762 15.1338 24.2064 15.0821 24.2365L15.403 24.7577C15.1553 24.8976 14.8818 24.9881 14.6062 25.0354C14.5976 24.8309 14.5782 24.6263 14.5502 24.4217C14.4964 24.4303 14.4404 24.439 14.3823 24.4454C14.4103 24.65 14.4296 24.8546 14.4383 25.0613C14.1669 25.0936 13.8978 25.0871 13.6544 25.0548L13.8504 24.4411C13.7922 24.4347 13.7341 24.426 13.6803 24.4153L13.4843 25.029C13.2259 24.9816 12.9998 24.9062 12.8017 24.8029L13.1958 24.2387C13.1441 24.2107 13.0967 24.1806 13.0515 24.1483L12.6531 24.7167C12.5842 24.6737 12.5217 24.6263 12.4614 24.5746C12.371 24.4949 12.2892 24.4024 12.2138 24.299L12.806 23.9265C12.7672 23.8834 12.7328 23.8382 12.7005 23.7908L12.1212 24.1569C12.0286 24.0018 11.9554 23.8252 11.8994 23.6357L12.4851 23.3795C12.4636 23.3257 12.4464 23.2718 12.4313 23.218L11.8585 23.4699C11.8456 23.4118 11.8348 23.3558 11.8262 23.2955C11.8133 23.2094 11.8047 23.1211 11.7961 23.0328C11.9834 22.9833 12.1729 22.951 12.3667 22.9337C12.3559 22.8735 12.3495 22.8175 12.343 22.7658C12.1643 22.783 11.9856 22.811 11.8111 22.8541C11.8025 22.8498 11.7961 22.8476 11.7874 22.8455C11.7831 22.7098 11.7874 22.5741 11.7896 22.4385C11.7358 22.4406 11.6776 22.4449 11.6173 22.4492C11.6066 22.7399 11.613 23.0328 11.6582 23.3257C11.7487 23.9028 11.9942 24.3937 12.3516 24.7081C12.6617 24.9795 13.0881 25.1539 13.6157 25.2271C13.7599 25.2465 13.9128 25.2572 14.07 25.2572C14.7957 25.2572 15.6162 25.0247 16.1222 24.3636L16.1179 24.3571Z" fill="#E2CAB0"/>
</g>
<path d="M3.94715 46.4679C3.94715 46.4679 3.48632 47.4929 3.94715 48.4792C4.40797 49.4654 4.69652 50.8091 4.10004 50.2127C3.50355 49.6162 3.22361 48.7204 3.22361 48.7204C3.22361 48.7204 2.93506 51.1795 2.36011 51.9935C1.81099 52.7709 2.47854 49.2027 2.47854 49.2027C2.47854 49.2027 1.99618 51.3518 1.38247 52.0753C0.768757 52.7989 1.80023 49.1144 1.80023 49.1144C1.80023 49.1144 0.923801 51.2204 0.527578 51.2635C0.13351 51.3066 1.49229 48.1497 1.49229 48.1497C1.49229 48.1497 0 49.8832 0 49.4008C0 48.9185 0.986249 48.042 1.29418 47.536C1.60212 47.0321 2.08447 46.3947 2.54314 45.936L3.94715 46.4679Z" fill="#DB7B61"/>
<path d="M45.305 13.672C45.1392 13.3813 44.8248 13.1724 44.7472 12.8473C44.6353 12.3843 45.053 11.9278 45.0573 11.4691C45.0638 11.3937 45.0638 11.3162 45.0487 11.2366C44.9389 10.6078 44.2175 10.3515 43.9117 10.2697C43.7976 10.2395 43.6792 10.2137 43.5629 10.1879C43.2011 10.1082 42.8243 10.0242 42.5379 9.80025C42.2579 9.5806 42.0857 9.24683 41.9199 8.92167C41.8746 8.83338 41.8294 8.74509 41.782 8.65895C41.2954 7.77391 40.5374 7.06545 39.6287 6.63047C38.5175 6.03398 37.1027 5.92847 35.8538 6.03829C34.79 6.13304 33.6789 6.36345 32.8111 7.02669C31.8657 7.75023 31.308 8.9755 31.2563 10.1512C31.2498 10.3063 31.2498 10.4592 31.2563 10.6142C31.3015 11.5789 31.5879 12.5092 31.8657 13.4093L32.3179 14.8758C32.2706 15.778 32.0294 16.7148 32.4428 17.5029C32.7486 18.0843 33.3472 18.4439 33.9157 18.7712C34.2754 18.9801 34.6371 19.1868 35.0183 19.3548C36.0024 19.7876 37.1286 19.9384 38.1687 19.6713C39.1205 19.428 39.9517 18.8595 40.7613 18.3039C41.866 17.5438 42.9686 16.7837 44.0732 16.0235C44.4759 15.7457 44.8894 15.4593 45.1628 15.0545C45.4385 14.6497 45.5462 14.0941 45.3028 13.6677L45.305 13.672ZM31.4049 10.6099C31.3726 9.9316 31.4781 9.30712 31.7042 8.77308C31.1745 10.8705 32.2253 12.4015 32.3179 14.374L32.0078 13.3662C31.7344 12.4747 31.4501 11.5531 31.4049 10.6078V10.6099ZM43.9893 10.6745C43.5564 10.6659 43.1085 10.7628 42.6951 10.6271C42.2149 10.4699 41.8832 10.0242 41.6765 9.56122C41.4698 9.1004 41.3557 8.59866 41.1274 8.1486C41.037 7.96987 40.9336 7.80406 40.8216 7.65117C41.1446 7.96987 41.4267 8.33164 41.6464 8.73217C41.6937 8.81615 41.7368 8.90444 41.782 8.99273C41.9565 9.33081 42.1352 9.68181 42.441 9.92084C42.7554 10.1642 43.1473 10.2525 43.5263 10.3364C43.6426 10.3623 43.7567 10.3881 43.8708 10.4183C44.0668 10.4699 44.4501 10.6013 44.6934 10.864C44.491 10.7413 44.2283 10.681 43.9893 10.6767V10.6745Z" fill="#2A1543"/>
<path d="M37.4086 14.9962C35.1088 15.8727 33.1922 14.4062 32.29 12.0375C31.3877 9.67093 31.8421 7.2979 34.1419 6.42148C36.4417 5.54505 39.717 6.49469 40.6193 8.86126C41.5215 11.2278 39.7084 14.1177 37.4086 14.9941V14.9962Z" fill="#2A1543"/>
<path d="M37.37 7.93752C35.4277 6.36555 31.8208 8.66106 32.1825 10.3988C32.9276 13.9713 33.9612 15.1384 35.2059 15.5433C36.6465 16.0105 37.2946 15.6079 38.0806 17.5136C38.9011 18.362 40.5075 17.8625 40.5312 16.5037C39.4609 13.9928 39.5385 11.7232 39.5385 11.7232C39.5385 11.7232 38.1711 8.58784 37.37 7.93968V7.93752Z" fill="#FFAB97"/>
<path d="M36.1101 12.0872C36.166 12.225 36.1014 12.3822 35.9636 12.4404C35.8258 12.4964 35.6686 12.4318 35.6105 12.2939C35.5545 12.1561 35.6191 11.9989 35.7569 11.9408C35.8947 11.8848 36.0519 11.9494 36.1101 12.0872Z" fill="black"/>
<path d="M35.8323 12.1215C35.8538 12.1711 35.828 12.2292 35.7784 12.2507C35.7289 12.2723 35.6708 12.2464 35.6492 12.1969C35.6277 12.1474 35.6536 12.0892 35.7031 12.0677C35.7526 12.0462 35.8107 12.072 35.8323 12.1215Z" fill="white"/>
<path d="M34.3508 12.8387C34.4068 12.9765 34.3422 13.1337 34.2043 13.1918C34.0665 13.25 33.9093 13.1832 33.8512 13.0454C33.7952 12.9076 33.8598 12.7504 33.9976 12.6923C34.1354 12.6363 34.2926 12.7009 34.3508 12.8387Z" fill="black"/>
<path d="M34.0728 12.873C34.0943 12.9225 34.0685 12.9807 34.019 13.0022C33.9694 13.0237 33.9113 12.9979 33.8898 12.9484C33.8682 12.8988 33.8919 12.8407 33.9436 12.8192C33.9953 12.7976 34.0513 12.8235 34.0728 12.873Z" fill="white"/>
<path d="M34.116 11.7922C33.7133 11.7039 33.3107 11.8827 33.1212 12.2617C33.0846 12.3327 33.1147 12.4318 33.1836 12.477C33.2525 12.5222 33.3387 12.5007 33.3753 12.4296C33.4528 12.2746 33.5884 12.1648 33.7435 12.1131C33.821 12.0872 33.905 12.0765 33.9911 12.0829C34.0665 12.0872 34.1483 12.1174 34.2022 12.0485C34.2151 12.0313 34.2237 12.0119 34.228 11.9903C34.2431 11.9171 34.1957 11.8116 34.1203 11.7944L34.116 11.7922Z" fill="#2A1543"/>
<path d="M34.9171 11.4347C35.1863 11.0686 35.6579 10.8877 36.1037 11.004C36.1876 11.0255 36.2372 11.1181 36.2156 11.2C36.1919 11.2839 36.1037 11.3335 36.0197 11.3119C35.8366 11.2646 35.6407 11.2926 35.4749 11.3744C35.3909 11.4153 35.3112 11.4713 35.2445 11.538C35.1863 11.5983 35.1368 11.678 35.042 11.6716C35.0183 11.6716 34.9968 11.6629 34.9774 11.65C34.9085 11.6113 34.8676 11.5014 34.9193 11.4325L34.9171 11.4347Z" fill="#2A1543"/>
<path d="M34.941 13.3878C34.9259 13.3942 34.9109 13.3878 34.9001 13.377C34.7515 13.1897 34.7924 13.0885 34.8549 13.0346C34.9173 12.9808 35.0121 12.9636 35.137 12.9851C35.1563 12.9872 35.1693 13.0066 35.1671 13.026C35.1628 13.0454 35.1456 13.0583 35.1262 13.0562C35.0228 13.0389 34.9475 13.0518 34.9022 13.0906C34.8463 13.138 34.8656 13.2198 34.9561 13.3339C34.969 13.349 34.9647 13.3705 34.9496 13.3835C34.9475 13.3835 34.9432 13.3878 34.941 13.3878Z" fill="#DD7668"/>
<path d="M35.1193 14.0036C35.128 14.0316 35.1387 14.0575 35.1516 14.0833C35.1947 14.163 35.2658 14.2276 35.3519 14.2556C35.4596 14.2879 35.5823 14.2556 35.6641 14.1824C35.9419 13.9304 35.6318 13.433 35.2873 13.5708C35.1969 13.6074 35.1323 13.6936 35.1107 13.7883C35.0935 13.8594 35.0978 13.9347 35.1193 14.0058V14.0036Z" fill="#DD7668"/>
<path d="M35.4617 13.8012C35.5328 13.7603 35.606 13.7237 35.6792 13.6871C35.5888 13.573 35.4423 13.5084 35.2873 13.5687C35.1969 13.6053 35.1323 13.6914 35.1107 13.7862C35.0935 13.8572 35.0978 13.9326 35.1193 14.0037C35.1193 14.0101 35.1258 14.0166 35.128 14.023C35.1581 14.0015 35.1882 13.9778 35.2184 13.9563C35.2981 13.9003 35.3799 13.8486 35.4617 13.7991V13.8012Z" fill="white"/>
<path d="M40.4232 11.4434C40.2531 11.9796 39.7708 12.3026 39.3465 12.1691C38.9223 12.0356 38.7156 11.4907 38.8836 10.9567C39.0537 10.4205 39.536 10.0975 39.9603 10.231C40.3845 10.3667 40.5912 10.9093 40.4232 11.4434Z" fill="#FFAB97"/>
<path d="M39.8227 10.513C39.6504 10.4958 39.4631 10.5776 39.321 10.7305C39.2499 10.8059 39.2068 10.8812 39.1896 10.9609C39.1659 11.0643 39.1896 11.1719 39.2564 11.2409C39.3145 11.3033 39.3942 11.327 39.4631 11.3485C39.5126 11.3636 39.56 11.3787 39.5944 11.4045C39.6461 11.4454 39.6698 11.5229 39.6483 11.5854C39.6267 11.6478 39.5578 11.6931 39.4932 11.6888C39.4545 11.6888 39.4222 11.7167 39.42 11.7555C39.42 11.7943 39.448 11.8266 39.4868 11.8287C39.5298 11.8287 39.5708 11.8223 39.6095 11.8072C39.687 11.7749 39.7516 11.7124 39.7796 11.6328C39.8227 11.5122 39.7796 11.3701 39.6806 11.2925C39.6268 11.2516 39.56 11.2322 39.504 11.215C39.4459 11.1978 39.392 11.1806 39.3597 11.1461C39.3274 11.1116 39.3145 11.0514 39.3274 10.9932C39.3317 10.9695 39.3425 10.9458 39.3554 10.9222C39.42 10.8942 39.5083 10.8812 39.5686 10.9092C39.6354 10.9415 39.687 11.004 39.7043 11.0772C39.7129 11.116 39.7516 11.1396 39.7883 11.1289C39.7926 11.1289 39.7947 11.1289 39.799 11.1246C39.8313 11.1116 39.8485 11.0772 39.8399 11.0427C39.8141 10.9286 39.7344 10.8296 39.6268 10.78C39.588 10.7606 39.5449 10.7542 39.5019 10.7542C39.5988 10.681 39.7064 10.6422 39.8076 10.653C39.9325 10.6637 40.066 10.7714 40.0596 10.9071C40.0596 10.9458 40.0876 10.9781 40.1263 10.9803C40.1651 10.9803 40.1974 10.9523 40.1995 10.9135C40.2082 10.7176 40.0337 10.5345 39.8184 10.513H39.8227Z" fill="#DD7668"/>
<path d="M32.7076 9.76999C33.4678 10.444 34.4928 10.8144 35.5092 10.7821C35.0505 10.6012 34.6306 10.3169 34.2904 9.95949C35.4855 10.4483 36.7818 10.6852 38.0717 10.6486C38.4981 10.6378 38.9761 10.5689 39.2302 10.2287C39.424 9.97026 39.4348 9.61495 39.3723 9.2984C39.2022 8.44351 38.5454 7.73289 37.7552 7.36251C36.9649 6.99213 36.0583 6.92968 35.1926 7.0395C34.3916 7.14071 33.5841 7.39912 32.9811 7.93531C32.3652 8.48442 32.0099 9.29409 31.926 10.1145C31.8635 10.7282 31.8893 11.5681 32.1714 12.1344C32.2059 12.2033 32.2985 12.3433 32.3954 12.3217C32.5117 12.2981 32.5138 12.072 32.5354 11.9772C32.6086 11.6327 32.6603 11.2817 32.6904 10.9307C32.7076 10.7347 32.7162 10.5387 32.7184 10.3406C32.7184 10.2502 32.7701 9.82383 32.7055 9.76784L32.7076 9.76999Z" fill="#2A1543"/>
<path d="M39.4457 15.6358C39.4457 15.6358 41.3084 14.9446 43.2292 15.0652C45.1522 15.1858 49.6851 15.0501 49.6851 15.0501L53.1391 12.1409L54.9415 13.4544C54.9415 13.4544 51.9375 17.9162 50.8565 18.517C49.7755 19.1178 46.1406 19.4624 46.1406 19.4624C46.1406 19.4624 47.8525 23.1037 48.3629 25.2097C48.3629 25.2097 46.5002 26.8657 42.7167 26.715C38.9332 26.5642 35.9056 27.7357 35.4361 26.4738C34.9667 25.2119 34.3896 22.4491 34.9645 20.1364C35.5395 17.8236 36.8595 16.5316 39.4436 15.6315L39.4457 15.6358Z" fill="#FFAB97"/>
<path d="M37.0252 16.4219C37.0252 16.4219 37.8069 18.0886 39.4887 17.3565C41.1705 16.6243 40.1282 15.1557 40.1282 15.1557C40.1282 15.1557 41.7713 14.8305 43.214 14.7379C44.6546 14.6453 48.8042 15.1557 49.7 14.7379C50.598 14.3202 51.3969 12.858 52.2087 12.6922C53.0205 12.5264 54.6722 13.5773 54.5817 14.4343C54.4913 15.2892 51.9847 18.7131 50.753 19.0598C49.5213 19.4043 46.9243 19.7962 46.9243 19.7962C46.9243 19.7962 48.3089 23.4247 48.6255 24.566C48.942 25.7073 45.6194 27.7896 42.7661 26.7172C39.9129 25.647 35.408 25.7568 35.408 25.7568C35.408 25.7568 34.1763 23.1167 34.5273 21.0732C34.9149 18.8164 35.6686 17.1863 37.0295 16.4219H37.0252Z" fill="#F27F0C"/>
<g style="mix-blend-mode:multiply">
<path d="M39.4889 17.3566C37.8071 18.0866 37.0254 16.422 37.0254 16.422C36.7003 16.605 36.4117 16.8376 36.1533 17.1154C36.7304 17.9272 37.7167 18.4505 38.7158 18.4225C39.2327 18.4074 39.7473 18.2545 40.1715 17.9617C40.6797 17.6085 41.0458 17.0551 41.1664 16.4478C41.2633 15.9655 41.203 15.4551 41.007 15.0029C40.4816 15.0869 40.1263 15.158 40.1263 15.158C40.1263 15.158 41.1685 16.6287 39.4868 17.3587L39.4889 17.3566Z" fill="#DDCCBF"/>
</g>
<g style="mix-blend-mode:multiply">
<path d="M45.081 23.0673C45.0077 22.908 44.9108 22.7594 44.8548 22.5936C44.717 22.1844 44.8484 21.7408 44.9151 21.3145C44.9819 20.8881 44.9474 20.3799 44.5964 20.1279C44.2605 19.8868 43.7975 19.9944 43.4013 20.1129C43.0051 20.2313 42.5443 20.3411 42.204 20.1064C41.937 19.9212 41.8337 19.5745 41.6075 19.3398C41.3534 19.0728 40.9572 18.9737 40.5911 19.0125C40.2251 19.0512 39.8827 19.2171 39.5704 19.4152C39.1484 19.6822 38.7328 20.0956 38.7715 20.5931C38.7995 20.957 39.073 21.2843 39.0343 21.6482C38.9976 21.9777 38.7177 22.2232 38.5777 22.5225C38.3409 23.0264 38.5304 23.6509 38.9051 24.0622C39.1785 24.3615 39.5338 24.5682 39.9085 24.7319C39.9085 24.7685 39.9085 24.8029 39.9085 24.8395C41.0326 25.1238 42.0619 25.8839 43.2183 25.8172C43.8686 25.7806 44.5038 25.4554 44.8828 24.9257C45.2597 24.3959 45.3544 23.6638 45.0831 23.0738L45.081 23.0673Z" fill="#DDCCBF"/>
</g>
<g style="mix-blend-mode:multiply">
<path d="M46.5563 19.3956C46.524 19.3956 46.4938 19.3762 46.483 19.3439C46.2332 18.6182 45.9124 17.9119 45.5334 17.2444C45.5119 17.2078 45.5248 17.1604 45.5614 17.1389C45.598 17.1173 45.6454 17.1303 45.6669 17.1669C46.0524 17.843 46.3754 18.5579 46.6295 19.2922C46.6424 19.3332 46.623 19.3762 46.5821 19.3913C46.5735 19.3935 46.5649 19.3956 46.5563 19.3956Z" fill="#DDCCBF"/>
<path d="M37.4668 22.5611C37.4259 22.5611 37.3915 22.5288 37.3893 22.4879C37.3549 21.7751 37.3958 21.058 37.5077 20.3539C37.5142 20.3108 37.553 20.2828 37.596 20.2893C37.6391 20.2957 37.6671 20.3366 37.6606 20.3775C37.5508 21.0709 37.512 21.7772 37.5444 22.4792C37.5444 22.5223 37.5142 22.5589 37.4711 22.5611C37.4711 22.5611 37.469 22.5611 37.4668 22.5611Z" fill="#DDCCBF"/>
</g>
<path d="M53.1411 12.1432C53.1411 12.1432 53.6278 11.4196 53.4857 10.9868C53.3457 10.554 52.9818 9.48805 53.322 9.41699C53.6622 9.34593 54.0477 10.5303 54.0477 10.5303C54.0477 10.5303 54.8444 7.94193 55.3483 7.89455C55.8522 7.84718 54.8918 10.2137 54.8918 10.2137C54.8918 10.2137 56.2269 7.56724 56.7437 7.51986C57.2584 7.47249 55.7359 10.3666 55.7359 10.3666C55.7359 10.3666 57.3294 8.39844 57.6697 8.52764C58.0099 8.65685 56.1235 10.8598 56.1235 10.8598C56.1235 10.8598 57.6826 9.89935 57.9152 10.0759C58.1499 10.2525 57.0258 11.06 56.5671 11.4476C56.1106 11.8352 55.6455 13.3641 54.9435 13.461L53.1411 12.1475V12.1432Z" fill="#FFAB97"/>
<path d="M31.0969 24.7253C31.0969 24.7253 29.3246 25.8472 28.8444 27.6173C28.3642 29.3895 26.5102 36.1964 27.9422 37.8588C29.5034 39.6719 32.5892 40.8929 33.4914 40.501C34.3937 40.1091 32.0594 31.881 32.0594 31.881L31.099 24.7231L31.0969 24.7253Z" fill="#8B8EFD"/>
<path d="M39.4803 28.2417C39.6719 32.598 37.9859 34.0365 36.8919 34.7858C34.7644 36.2415 32.372 36.1834 32.372 36.1834L28.1061 39.547L25.3477 38.0116C25.3477 38.0116 27.7767 33.2936 29.5812 32.0898C31.2695 30.9636 32.5529 30.3456 32.5529 30.3456L34.1248 27.2124L39.4825 28.246L39.4803 28.2417Z" fill="#523FAF"/>
<g style="mix-blend-mode:multiply">
<path d="M29.637 38.337C29.1741 37.958 28.6852 37.6134 28.1727 37.3055C29.3786 36.0587 30.9807 35.1844 32.6862 34.883C32.7293 34.8765 32.7573 34.8356 32.7487 34.7925C32.7422 34.7495 32.7013 34.7215 32.6582 34.7301C30.9097 35.0402 29.2688 35.9403 28.0371 37.2237C27.4686 36.8921 26.8743 36.6078 26.2584 36.3688C26.2304 36.414 26.2046 36.4592 26.1787 36.5045C26.7817 36.737 27.3674 37.0148 27.9273 37.34C27.5913 37.7039 27.2877 38.0937 27.0228 38.5093C26.9991 38.5459 27.0099 38.5932 27.0465 38.6169C27.0594 38.6255 27.0745 38.6298 27.0874 38.6298C27.1133 38.6298 27.1391 38.6169 27.152 38.5932C27.4169 38.1755 27.7248 37.7836 28.0629 37.4196C28.569 37.7211 29.0535 38.0614 29.51 38.4339L29.6349 38.3348L29.637 38.337Z" fill="#A9A3CC"/>
</g>
<path d="M26.1551 37.5918C26.1551 37.5918 24.1115 36.7175 22.9185 37.2817C21.7256 37.8459 22.7592 39.3145 24.8372 40.2814C26.9152 41.2482 28.2891 41.6466 28.5948 40.6711C28.9006 39.6956 28.6357 39.0001 28.6357 39.0001L26.1572 37.5918H26.1551Z" fill="#2A1543"/>
<path d="M28.5928 40.6712C28.6101 40.6131 28.6273 40.5549 28.6424 40.4989C26.6462 40.2707 24.7275 39.4136 23.2309 38.0742C23.0199 37.8847 22.8756 37.678 22.7033 37.4562C22.6969 37.4476 22.6883 37.439 22.6818 37.4282C21.8937 38.0699 22.9187 39.3878 24.8373 40.2793C26.9154 41.2462 28.2892 41.6445 28.595 40.6691L28.5928 40.6712Z" fill="#BEBDFB"/>
<path d="M24.2255 37.9385C24.1437 37.917 24.0963 37.833 24.1157 37.7512C24.176 37.5165 24.1501 37.2602 24.0468 37.0427C23.9886 36.9996 23.9671 36.92 23.9994 36.8532C24.036 36.7757 24.1286 36.7412 24.2061 36.7778L24.2277 36.7886C24.2578 36.8037 24.2858 36.8274 24.3009 36.8575C24.4581 37.1525 24.499 37.5057 24.4172 37.8287C24.3956 37.9127 24.3117 37.9622 24.2277 37.9407C24.2277 37.9407 24.2277 37.9407 24.2255 37.9407V37.9385Z" fill="#BEBDFB"/>
<path d="M24.8651 37.9901C24.7833 37.9685 24.7338 37.8845 24.7553 37.8006C24.8242 37.5378 24.779 37.2428 24.6369 37.0124C24.5917 36.9392 24.6132 36.8445 24.6864 36.7992C24.7596 36.754 24.8544 36.7755 24.8996 36.8488C25.0891 37.1545 25.1472 37.5292 25.0546 37.8781C25.0331 37.9621 24.9491 38.0116 24.8651 37.9901C24.8651 37.9901 24.8651 37.9901 24.863 37.9901H24.8651Z" fill="#BEBDFB"/>
<path d="M25.4638 38.1065C25.4035 38.0893 25.3562 38.0376 25.3497 37.973L25.2679 37.1504C25.2593 37.0643 25.3217 36.9889 25.4079 36.9803C25.494 36.9717 25.5694 37.0341 25.578 37.1203L25.6598 37.9428C25.6684 38.029 25.606 38.1043 25.5198 38.113C25.5005 38.113 25.4811 38.113 25.4638 38.1087V38.1065Z" fill="#BEBDFB"/>
<path d="M33.1403 43.6255C33.1403 43.6255 27.9141 58.641 27.7957 61.4038C27.6751 64.1666 29.5377 79.7226 29.5377 79.7226C29.5377 79.7226 31.7406 79.882 33.6615 78.9819C33.6615 78.9819 32.7075 65.4069 32.9013 63.6562C33.1813 61.1131 37.9165 49.8423 37.9165 49.8423C37.9165 49.8423 35.7847 59.6036 35.8235 62.2458C35.8644 64.888 38.2266 79.3845 38.2266 79.3845C38.2266 79.3845 40.5889 79.6257 41.9498 78.7041C41.9498 78.7041 41.4696 66.9724 41.349 64.4487C41.2284 61.9271 41.349 61.2854 42.2298 58.7228C43.1105 56.1603 45.9142 49.5085 45.9637 46.9611C46.0348 43.3865 44.6717 41.2654 44.6717 41.2654L33.1403 43.6276V43.6255Z" fill="#2A1543"/>
<g style="mix-blend-mode:multiply">
<path d="M35.0917 43.5243L34.9431 43.4834C34.6481 44.5558 34.0237 45.5463 33.186 46.2785C32.8156 46.6015 32.4 46.8707 31.9586 47.0882C31.9349 47.1571 31.9133 47.226 31.8896 47.2949C32.3957 47.0602 32.8716 46.7587 33.2893 46.3948C34.1507 45.6454 34.7903 44.6247 35.0939 43.5243H35.0917Z" fill="#A9A3CC"/>
<path d="M44.6289 46.2441C44.6203 44.6118 44.3253 42.9839 43.7568 41.4507L43.6039 41.483C44.1594 42.9774 44.4545 44.5623 44.4738 46.1558C43.985 45.8608 43.535 45.4969 43.1474 45.0791C42.3334 44.2006 41.7864 43.0786 41.5926 41.8964L41.4397 41.9266C41.64 43.1368 42.1977 44.2824 43.0332 45.1825C43.4531 45.6347 43.9398 46.0223 44.4738 46.3324C44.4738 47.59 44.3059 48.8475 43.9592 50.0642C43.5264 51.5866 42.8222 53.0402 42.1439 54.4463C41.5775 55.6199 40.9897 56.8323 40.559 58.0856C39.1593 62.1554 39.3811 66.5268 39.829 70.6441C39.913 71.4214 40.0077 72.2117 40.1003 72.9762C40.2877 74.5374 40.4772 76.1223 40.5956 77.7158C39.7536 77.9505 38.8729 78.0452 38.0029 77.9936C38.0115 78.0474 38.0202 78.1012 38.0288 78.1529C38.1709 78.1615 38.313 78.1658 38.4551 78.1658C39.1808 78.1658 39.9087 78.0646 40.6085 77.8708C40.6408 78.3209 40.6667 78.7709 40.686 79.2231C40.7377 79.2102 40.7894 79.1973 40.8389 79.1844C40.8196 78.7322 40.7937 78.28 40.7614 77.8278C41.1512 77.7115 41.5323 77.5672 41.8962 77.3949C41.8941 77.3411 41.8919 77.2851 41.8898 77.227C41.5237 77.4057 41.1404 77.5521 40.7485 77.6706C40.6301 76.0857 40.4406 74.5094 40.2554 72.9568C40.1628 72.1924 40.068 71.4021 39.984 70.6247C39.5383 66.5247 39.3165 62.1727 40.7054 58.1329C41.1339 56.8904 41.7175 55.6802 42.2817 54.5109C42.9643 53.0983 43.6706 51.6383 44.1078 50.103C44.4502 48.9014 44.6203 47.6589 44.6267 46.4164C45.0488 46.6468 45.4967 46.832 45.9618 46.9612C45.9618 46.9612 45.9618 46.9569 45.9618 46.9547C45.9618 46.903 45.9618 46.8514 45.9618 46.7997C45.4967 46.6662 45.0488 46.4767 44.6267 46.2398L44.6289 46.2441Z" fill="#A9A3CC"/>
<path d="M39.0924 47.0495C39.7492 47.0129 40.3995 46.8837 41.0218 46.6576C41.0627 46.6425 41.0821 46.5994 41.0692 46.5585C41.0541 46.5176 41.0111 46.4982 40.9701 46.5111C40.378 46.7265 39.7599 46.8535 39.1355 46.8923C39.4499 45.6175 39.5618 44.2867 39.452 42.9839L39.297 42.9968C39.4046 44.2996 39.2927 45.6282 38.9718 46.9009C38.6402 46.9138 38.3086 46.9009 37.9791 46.8643L38.3775 43.5028L38.2224 43.4856L37.8241 46.8449C37.4386 46.7911 37.0596 46.7071 36.6871 46.5843C36.6462 46.5714 36.6031 46.593 36.5902 46.6339C36.5772 46.6748 36.5988 46.7178 36.6397 46.7308C37.0208 46.8557 37.4106 46.944 37.8068 46.9978L37.7099 47.8161C37.7035 47.8721 37.697 47.9302 37.6927 47.9905C37.5032 47.9302 37.3202 47.8527 37.1457 47.7558C37.1091 47.7342 37.0618 47.7472 37.0402 47.7859C37.0187 47.8225 37.0316 47.8699 37.0704 47.8914C37.2663 48.0034 37.4752 48.0896 37.6905 48.1542C37.6927 48.1951 37.6992 48.2338 37.7078 48.2747C37.7465 48.4556 37.8628 48.6042 38.0092 48.658C38.0566 48.6753 38.104 48.6839 38.1514 48.6839C38.3043 48.6839 38.4507 48.6021 38.5433 48.503C38.6057 48.4362 38.6531 48.363 38.6919 48.2834C39.1118 48.2683 39.5295 48.1714 39.9107 47.9883C39.9494 47.969 39.9645 47.9237 39.9473 47.885C39.9279 47.8462 39.8827 47.8311 39.8439 47.8484C39.5037 48.012 39.1355 48.1025 38.7608 48.1262C38.7715 48.0982 38.7823 48.068 38.7931 48.04C38.9072 47.717 39.0041 47.3875 39.0924 47.0559V47.0495ZM38.4313 48.391C38.343 48.4836 38.1944 48.5568 38.0631 48.5073C37.9468 48.4642 37.8822 48.3393 37.8585 48.236C37.8564 48.2209 37.8542 48.208 37.852 48.1929C38.0695 48.2446 38.2913 48.2726 38.5131 48.2769C38.4894 48.3178 38.4615 48.3566 38.4292 48.3889L38.4313 48.391ZM38.6466 47.9819C38.6294 48.0314 38.61 48.0788 38.5907 48.1262C38.3387 48.1262 38.0889 48.096 37.8434 48.0336C37.8456 47.9668 37.8542 47.9001 37.8628 47.8355L37.9597 47.0172C38.2138 47.0452 38.4679 47.0602 38.722 47.0602C38.7909 47.0602 38.8598 47.0581 38.9287 47.0559C38.8448 47.3682 38.7543 47.6783 38.6466 47.9819Z" fill="#A9A3CC"/>
</g>
<path d="M35.8841 23.7155L32.9534 23.8425L30.5115 25.4683C29.5166 26.1316 29.0579 27.3569 29.3745 28.5111L33.6166 43.9271L44.2608 40.4537L38.5952 25.5028C38.171 24.3852 37.0793 23.6638 35.8841 23.7155Z" fill="#FFAB97"/>
<path d="M31.6484 13.2737C30.9292 12.7246 29.8439 12.6536 29.1763 13.2328C27.5462 12.3133 25.2357 13.3663 24.1654 14.723C22.8411 16.4026 23.1146 18.9457 25.0569 20.0181C27.0251 21.1034 29.4541 20.4402 31.4029 21.547C31.8272 21.7882 32.3354 22.0445 32.8112 21.7688C33.2505 21.5147 33.313 20.9635 33.3582 20.5091C33.4896 19.2214 33.4271 17.9164 33.1989 16.6459C32.9814 15.4357 32.6799 14.0662 31.6441 13.2759L31.6484 13.2737Z" fill="#402664"/>
<path d="M29.8741 14.6991C27.4795 13.1767 23.709 16.2345 24.3421 18.1467C25.6449 22.0809 26.9627 23.2631 28.4184 23.556C30.1045 23.8962 30.7828 23.3579 31.9155 25.4057C32.9513 26.2563 34.6977 25.4833 34.5491 23.9501C33.0159 21.2562 32.8092 18.6872 32.8092 18.6872C32.8092 18.6872 30.8603 15.3279 29.8741 14.6991Z" fill="#FFAB97"/>
<path d="M29.1784 19.4711C29.2602 19.6197 29.2064 19.8048 29.0578 19.8867C28.9092 19.9685 28.7241 19.9147 28.6422 19.7661C28.5604 19.6175 28.6142 19.4323 28.7628 19.3505C28.9114 19.2687 29.0966 19.3225 29.1784 19.4711Z" fill="black"/>
<path d="M28.8703 19.5465C28.9005 19.6004 28.8811 19.6693 28.8273 19.6994C28.7734 19.7296 28.7045 19.7102 28.6744 19.6564C28.6442 19.6025 28.6636 19.5336 28.7174 19.5035C28.7713 19.4733 28.8402 19.4927 28.8703 19.5465Z" fill="white"/>
<path d="M27.1047 20.6188C27.1865 20.7674 27.1327 20.9525 26.9841 21.0344C26.8355 21.1162 26.6503 21.0624 26.5685 20.9138C26.4867 20.7652 26.5405 20.58 26.6891 20.4982C26.8377 20.4164 27.0229 20.4702 27.1047 20.6188Z" fill="black"/>
<path d="M26.7947 20.6943C26.8248 20.7481 26.8054 20.817 26.7516 20.8471C26.6977 20.8773 26.6288 20.8579 26.5987 20.8041C26.5685 20.7502 26.5879 20.6813 26.6418 20.6512C26.6956 20.621 26.7645 20.6404 26.7947 20.6943Z" fill="white"/>
<path d="M26.7019 19.471C26.2346 19.4236 25.8061 19.6777 25.6402 20.1277C25.6101 20.2117 25.6553 20.3216 25.7371 20.3625C25.8211 20.4055 25.9159 20.3689 25.946 20.2828C26.0149 20.0976 26.1527 19.9555 26.3207 19.878C26.4068 19.8392 26.4994 19.8155 26.5942 19.8112C26.6782 19.8069 26.7751 19.8284 26.8268 19.7444C26.8397 19.7251 26.8461 19.7014 26.8483 19.6755C26.8547 19.5916 26.7901 19.4774 26.6997 19.4688L26.7019 19.471Z" fill="#402664"/>
<path d="M27.7487 18.8919C28.0049 18.444 28.5153 18.1791 29.03 18.2523C29.1269 18.2653 29.1958 18.3622 29.1807 18.4591C29.1656 18.556 29.0709 18.6227 28.974 18.6098C28.7629 18.5796 28.5454 18.6356 28.3667 18.7519C28.2763 18.8101 28.1944 18.8833 28.1298 18.9673C28.0717 19.0426 28.0265 19.1395 27.9188 19.1438C27.893 19.1438 27.8671 19.1395 27.8434 19.1288C27.7616 19.0943 27.7013 18.9759 27.7508 18.8919H27.7487Z" fill="#402664"/>
<path d="M28.6121 21.7751C28.4657 21.857 28.2955 21.9086 28.106 21.9129C28.0178 21.9129 27.9445 21.844 27.9424 21.7558C27.9424 21.6675 28.0113 21.5942 28.0996 21.5921C28.5583 21.5813 28.8468 21.1722 28.8748 20.9547C28.8856 20.8664 28.9652 20.804 29.0535 20.8169C29.1418 20.8276 29.2043 20.9073 29.1913 20.9956C29.159 21.2519 28.948 21.5899 28.6121 21.7751Z" fill="#DD7668"/>
<path d="M27.8391 21.1615C27.824 21.1701 27.8046 21.168 27.7917 21.1551C27.5979 20.9634 27.6345 20.8428 27.697 20.7761C27.7616 20.7072 27.8649 20.677 28.0092 20.6835C28.0307 20.6835 28.048 20.7029 28.048 20.7265C28.048 20.7481 28.0286 20.7653 28.0071 20.7653C27.8886 20.7588 27.8046 20.7825 27.7573 20.8321C27.7013 20.8923 27.7314 20.9828 27.8499 21.1012C27.8649 21.1163 27.8649 21.1421 27.8499 21.1572C27.8477 21.1594 27.8434 21.1615 27.8412 21.1637L27.8391 21.1615Z" fill="#DD7668"/>
<path d="M33.7716 18.2587C33.6489 18.8854 33.1471 19.3139 32.6518 19.217C32.1544 19.1201 31.8508 18.5344 31.9735 17.9077C32.0963 17.2811 32.598 16.8526 33.0933 16.9495C33.5907 17.0464 33.8943 17.6321 33.7716 18.2587Z" fill="#EFAD9C"/>
<path d="M32.975 17.2876C32.779 17.2919 32.5766 17.4082 32.4366 17.5977C32.3677 17.6924 32.3289 17.7829 32.3182 17.8733C32.3053 17.9939 32.3483 18.1123 32.4302 18.1812C32.5034 18.2437 32.596 18.2609 32.6778 18.2738C32.7359 18.2846 32.7919 18.2932 32.8328 18.3191C32.8974 18.3578 32.934 18.4418 32.9168 18.515C32.8996 18.5882 32.8307 18.6464 32.7553 18.6528C32.7101 18.6571 32.6778 18.6937 32.6821 18.739C32.6843 18.782 32.723 18.8165 32.7682 18.8122C32.8156 18.8079 32.863 18.795 32.9039 18.7713C32.9879 18.726 33.0525 18.6464 33.074 18.5516C33.1063 18.4116 33.0417 18.2545 32.9168 18.1812C32.8501 18.1403 32.7747 18.1274 32.7079 18.1166C32.6412 18.1037 32.5766 18.0929 32.5357 18.0585C32.4948 18.024 32.4711 17.9573 32.4797 17.8905C32.4818 17.8647 32.4926 17.8367 32.5034 17.8065C32.5723 17.7678 32.6713 17.7398 32.7424 17.7635C32.8221 17.7893 32.8888 17.8561 32.9168 17.9358C32.9319 17.9767 32.9771 17.9982 33.018 17.9853C33.0223 17.9853 33.0266 17.981 33.031 17.9788C33.0654 17.9594 33.0805 17.9185 33.0676 17.8819C33.0223 17.757 32.9211 17.6558 32.7941 17.6127C32.7467 17.5977 32.6972 17.5955 32.6498 17.5998C32.7489 17.5051 32.8651 17.4469 32.9814 17.4448C33.1235 17.4426 33.2894 17.546 33.3001 17.6989C33.3044 17.7419 33.341 17.7764 33.3863 17.7721C33.4293 17.7678 33.4638 17.7312 33.4595 17.686C33.4422 17.4642 33.2226 17.279 32.9793 17.2833L32.975 17.2876Z" fill="#DD7668"/>
<path d="M23.8596 18.0348C23.9974 18.5538 24.4023 18.9952 24.9083 19.1761C25.4143 19.357 26.0087 19.2708 26.4415 18.9543C26.1896 18.8272 25.9376 18.698 25.6857 18.571C26.7753 18.698 27.9123 18.3621 28.7585 17.6623C28.3989 17.5481 28.0393 17.4361 27.6797 17.322C28.7693 17.1971 29.8826 17.2596 30.9507 17.5029C31.2802 17.5783 31.7302 17.7742 32.0188 17.602C32.3332 17.4146 32.3375 16.8806 32.2793 16.5188C32.204 16.0623 31.9477 15.6531 31.6247 15.3237C31.3017 14.9942 30.9119 14.738 30.52 14.4946C29.8503 14.079 29.1375 13.6893 28.3537 13.5945C27.5074 13.4933 26.6396 13.756 25.9376 14.2384C25.4423 14.5786 25.0224 15.0222 24.6843 15.5175C24.3764 15.9675 24.0362 16.4908 23.8854 17.0184C23.7928 17.3479 23.7692 17.7032 23.8574 18.0369L23.8596 18.0348Z" fill="#402664"/>
<path d="M29.5056 12.7374C29.6908 12.5328 29.9535 12.3971 30.2291 12.3691C29.9858 12.6405 29.8544 13.0087 29.876 13.3726C29.7274 13.3963 29.3441 13.532 29.2493 13.3446C29.1632 13.1724 29.4108 12.858 29.5077 12.7374H29.5056Z" fill="#402664"/>
<path d="M29.3117 13.3232C29.3634 13.0648 29.1803 12.8021 28.9456 12.6837C28.7088 12.5652 28.4331 12.5588 28.1704 12.5696C28.4762 12.8064 28.6765 13.1768 28.7088 13.5623C28.9995 13.5235 29.288 13.4847 29.5787 13.446" fill="#402664"/>
<path d="M32.9273 16.7018L32.7744 16.6695C32.9165 15.9869 32.9381 15.399 32.8368 14.8714C32.7163 14.2383 32.4105 13.6978 31.9755 13.3468C31.4974 12.9614 30.8471 12.8279 30.3195 13.0087L30.27 12.8623C30.8471 12.6642 31.5534 12.8085 32.0724 13.2284C32.5354 13.6009 32.8605 14.1759 32.9876 14.8434C33.0931 15.3904 33.0716 15.9998 32.9251 16.7018H32.9273Z" fill="#402664"/>
<path d="M24.5313 19.6714C24.1394 19.525 23.7948 19.2214 23.5623 18.8165C23.3642 18.4698 23.2436 18.0542 23.207 17.5783C23.1359 16.6847 23.4201 15.7975 24.0489 14.9404L24.1738 15.033C23.5666 15.8578 23.2952 16.7105 23.362 17.5676C23.3986 18.0219 23.5106 18.416 23.6979 18.7411C23.9133 19.1158 24.2298 19.3958 24.5873 19.5271L24.5334 19.6736L24.5313 19.6714Z" fill="#402664"/>
<path d="M46.1167 33.0136L37.7723 25.888C37.2404 25.4337 37.178 24.6348 37.6324 24.1029C38.0867 23.571 38.8856 23.5086 39.4175 23.9629L47.7619 31.0885L46.1167 33.0157V33.0136Z" fill="#FFAB97"/>
<path d="M48.9423 32.792L41.5562 42.4693L40.3374 41.6187L46.8621 31.3428L48.9423 32.792Z" fill="#FFAB97"/>
<path d="M31.097 24.7252C31.097 24.7252 32.2189 26.6482 34.0191 25.9656C35.8215 25.2851 34.6996 23.2028 34.6996 23.2028C34.6996 23.2028 36.3405 23.1619 37.5033 23.6442C38.664 24.1244 41.7476 31.6935 42.749 34.0946C43.7503 36.4977 45.5527 42.4238 45.5527 42.4238C45.5527 42.4238 38.9052 45.4881 32.3783 44.7861C32.3783 44.7861 30.8967 35.0162 30.255 32.0532C29.6133 29.0901 28.5582 27.2791 29.5336 26.2067C30.367 25.2915 31.0949 24.7252 31.0949 24.7252H31.097Z" fill="#8B8EFD"/>
<g style="mix-blend-mode:multiply">
<path d="M45.5528 42.424C45.5528 42.424 45.3784 41.8533 45.1092 40.9941C44.1251 41.47 42.5574 42.1074 42.3421 42.1871C40.1241 43.0032 37.7769 43.4705 35.4168 43.5631C34.8182 43.5868 34.2195 43.5868 33.6209 43.5631C33.1515 43.5437 32.6497 43.4425 32.1738 43.4404C32.303 44.2694 32.3806 44.7862 32.3806 44.7862C38.9074 45.4861 45.5549 42.424 45.5549 42.424H45.5528Z" fill="#C5C5EF"/>
</g>
<path d="M42.7683 26.7195L42.329 29.2088C42.329 29.2088 41.2781 30.1692 39.9839 31.7325C38.5993 33.4035 37.626 38.619 37.626 38.619L40.7096 39.2995L43.832 34.8549C43.832 34.8549 46.1404 34.224 47.7619 32.2213C48.5888 31.2006 49.7732 29.3638 48.4058 25.3284C47.6263 26.4094 45.0487 27.57 42.7683 26.7173V26.7195Z" fill="#523FAF"/>
<g style="mix-blend-mode:multiply">
<path d="M47.5013 27.669C47.034 27.6755 46.5732 27.5226 46.2028 27.2362C46.0564 27.1221 45.9272 26.9907 45.8174 26.8443C45.7635 26.8572 45.7097 26.8701 45.6537 26.883C45.7807 27.0618 45.9315 27.2254 46.1081 27.3611C46.4978 27.6626 46.9823 27.8284 47.4755 27.8284C47.4798 27.8284 47.4841 27.8284 47.4884 27.8284C47.4238 28.7048 47.1891 29.4499 46.7864 30.0399C46.2782 30.785 45.4965 31.2975 44.7385 31.7928C44.5167 31.9392 44.2863 32.0899 44.0645 32.245C42.1028 33.6231 40.6083 35.587 39.7771 37.8158C39.1462 37.6693 38.5217 37.4906 37.908 37.286C37.8951 37.3377 37.8843 37.3872 37.8735 37.4368C38.4829 37.6392 39.0988 37.8158 39.7233 37.9622C39.5984 38.3089 39.4929 38.6599 39.4003 39.0174L39.551 39.0518C39.6436 38.6943 39.7513 38.3433 39.8762 37.9966C40.3865 38.1129 40.9033 38.2077 41.4223 38.2852L41.5214 38.1431C40.9873 38.0656 40.4554 37.9687 39.93 37.8481C40.7526 35.6559 42.2255 33.7243 44.1549 32.3699C44.3724 32.217 44.6029 32.0662 44.8246 31.922C45.5934 31.4181 46.3902 30.8969 46.9156 30.1282C47.3592 29.48 47.6068 28.6553 47.6563 27.682C47.6822 27.1458 47.6477 26.6096 47.5896 26.0798C47.5422 26.1121 47.4927 26.1423 47.4432 26.1746C47.4948 26.672 47.525 27.1759 47.5013 27.6755V27.669Z" fill="#A9A3CC"/>
</g>
<path d="M37.9038 38.3195C37.9038 38.3195 35.7009 38.0202 34.6996 38.8794C33.6983 39.7407 35.0851 40.882 37.344 41.261C39.605 41.6422 41.0349 41.6616 41.0693 40.6409C41.1038 39.6202 40.6645 39.0194 40.6645 39.0194L37.9017 38.3195H37.9038Z" fill="#2A1543"/>
<path d="M41.0716 40.6431C41.0716 40.5828 41.0738 40.5225 41.0716 40.4644C39.0884 40.7745 37.0082 40.4579 35.2123 39.5621C34.9582 39.4351 34.7644 39.2736 34.5404 39.1078C34.5318 39.1013 34.5211 39.0948 34.5124 39.0884C33.9224 39.9174 35.2618 40.9144 37.3463 41.2654C39.6073 41.6466 41.0372 41.666 41.0716 40.6453V40.6431Z" fill="#BEBDFB"/>
<path d="M36.1361 39.1659C36.0522 39.1659 35.9833 39.0992 35.9811 39.013C35.9768 38.7719 35.8842 38.5307 35.727 38.3476C35.6603 38.3218 35.6193 38.2507 35.6323 38.1775C35.6473 38.0935 35.727 38.0354 35.811 38.0505L35.8347 38.0548C35.867 38.0612 35.9014 38.0785 35.9251 38.1022C36.1534 38.3455 36.289 38.675 36.2955 39.0087C36.2955 39.0949 36.2287 39.1659 36.1426 39.1659H36.1405H36.1361Z" fill="#BEBDFB"/>
<path d="M36.7647 39.0453C36.6807 39.0453 36.6118 38.9764 36.6097 38.8924C36.6054 38.6211 36.4848 38.3498 36.2845 38.1646C36.2221 38.1064 36.2178 38.0074 36.2759 37.9449C36.334 37.8825 36.4331 37.8782 36.4956 37.9363C36.7604 38.1818 36.9133 38.5285 36.9198 38.8881C36.9198 38.9742 36.853 39.0453 36.7669 39.0453H36.7647Z" fill="#BEBDFB"/>
<path d="M37.3719 38.9979C37.3094 38.9979 37.2513 38.9592 37.2276 38.8989L36.9326 38.128C36.9024 38.0483 36.9412 37.9578 37.0209 37.9277C37.1005 37.8975 37.191 37.9363 37.2211 38.016L37.5161 38.7869C37.5463 38.8666 37.5075 38.957 37.4278 38.9872C37.4106 38.9936 37.3912 38.9979 37.3719 38.9979Z" fill="#BEBDFB"/>
<path d="M34.7019 23.2028C34.7019 23.2028 37.273 22.5977 38.5069 23.0025C40.9488 23.8036 46.7156 28.8188 47.7664 29.5703C48.8173 30.3219 49.7195 32.0338 49.1769 33.6252C48.3521 36.0542 44.7366 39.8592 44.7366 39.8592L43.2766 35.8302C43.2766 35.8302 45.4817 33.3237 45.2707 32.7832C45.0596 32.2427 40.7313 30.3025 40.7313 30.3025L34.6997 23.2028H34.7019Z" fill="#8B8EFD"/>
<g style="mix-blend-mode:multiply">
<path d="M47.764 29.5705C47.7015 29.5253 47.6197 29.465 47.5249 29.3896C47.0017 30.2725 46.8768 31.5129 47.0404 32.4518C47.2127 33.4423 47.7274 34.364 48.4574 35.053C48.7675 34.5599 49.0215 34.0733 49.1744 33.6232C49.7149 32.0318 48.8148 30.3199 47.764 29.5684V29.5705Z" fill="#C5C5EF"/>
</g>
<g style="mix-blend-mode:multiply">
<path d="M40.5823 30.3391C40.5823 30.3391 40.5607 30.337 40.55 30.3326L38.6162 29.4584C38.5775 29.4411 38.5603 29.3938 38.5775 29.355C38.5947 29.3162 38.6399 29.299 38.6808 29.3162L40.6146 30.1905C40.6533 30.2077 40.6706 30.2551 40.6533 30.2939C40.6404 30.3219 40.6124 30.3391 40.5823 30.3391Z" fill="#C5C5EF"/>
<path d="M44.4587 39.1831C44.4264 39.1831 44.3963 39.1616 44.3855 39.1293L43.5306 36.5323C43.5177 36.4914 43.5392 36.4483 43.5801 36.4354C43.621 36.4225 43.6641 36.444 43.677 36.4849L44.5319 39.0819C44.5448 39.1228 44.5233 39.1659 44.4824 39.1788C44.4738 39.1809 44.4652 39.1831 44.4587 39.1831Z" fill="#C5C5EF"/>
<path d="M31.5944 39.9627C31.5578 39.9627 31.5234 39.9347 31.5169 39.8981L31.1508 37.6371C31.1444 37.594 31.1724 37.5552 31.2154 37.5488C31.2585 37.5423 31.2973 37.5703 31.3037 37.6134L31.6698 39.8744C31.6763 39.9175 31.6483 39.9563 31.6052 39.9627C31.6009 39.9627 31.5966 39.9627 31.5923 39.9627H31.5944Z" fill="#C5C5EF"/>
<path d="M30.1257 31.5494C30.0869 31.5494 30.0546 31.5214 30.0481 31.4826L29.7079 28.8641C29.7014 28.821 29.7316 28.7823 29.7747 28.778C29.8177 28.7715 29.8565 28.8017 29.8608 28.8447L30.201 31.4632C30.2075 31.5063 30.1773 31.5451 30.1343 31.5494C30.13 31.5494 30.1278 31.5494 30.1235 31.5494H30.1257Z" fill="#C5C5EF"/>
</g>
<g style="mix-blend-mode:multiply">
<path d="M30.4167 25.6922C30.9486 26.2133 31.6097 26.6074 32.3268 26.8141C33.2699 27.0876 34.3811 27.0101 35.1089 26.349C35.6451 25.8623 35.9014 25.1216 35.9358 24.3959C35.9574 23.9264 35.8949 23.4592 35.798 23.0005C35.1692 23.0952 34.7019 23.2051 34.7019 23.2051C34.7019 23.2051 35.8239 25.2874 34.0215 25.9678C32.2191 26.6483 31.0993 24.7275 31.0993 24.7275C31.0993 24.7275 30.6837 24.9924 30.1992 25.464C30.2638 25.5372 30.337 25.6125 30.4189 25.6922H30.4167Z" fill="#C5C5EF"/>
</g>
<rect width="58" height="58" fill="url(#paint1_linear_1_1958)"/>
</g>
<defs>
<linearGradient id="paint0_linear_1_1958" x1="29" y1="-18.3158" x2="29" y2="47.5338" gradientUnits="userSpaceOnUse">
<stop stop-color="white" stop-opacity="0.21"/>
<stop offset="1" stop-color="#1B062A" stop-opacity="0"/>
</linearGradient>
<linearGradient id="paint1_linear_1_1958" x1="29" y1="36.5" x2="29" y2="57" gradientUnits="userSpaceOnUse">
<stop stop-color="#241033" stop-opacity="0"/>
<stop offset="1" stop-color="#241033"/>
</linearGradient>
</defs>
</svg>
