<svg width="245" height="198" viewBox="0 0 245 198" fill="none" xmlns="http://www.w3.org/2000/svg">
<path fill-rule="evenodd" clip-rule="evenodd" d="M183.319 0.366316C182.347 10.3551 175.985 18.8548 168.816 25.4163C156.936 36.2859 141.361 43.1143 126.155 49.7806L126.155 49.7807C119.863 52.5395 113.633 55.2705 107.755 58.2488C90.3399 67.0742 72.4564 79.2638 62.3827 96.3672C62.1359 96.7865 61.8774 97.3446 61.6143 97.9125C61.2472 98.705 60.8712 99.5165 60.506 99.9966C60.2119 100.383 59.8017 99.9678 59.7143 99.4901C55.2187 74.9304 74.7577 56.9458 94.3502 46.2124C103.627 41.1307 114.876 37.1996 126.362 33.186C147.605 25.7623 169.657 18.0564 181.526 2.26608C181.678 2.06343 181.869 1.73649 182.07 1.39325L182.07 1.39311C182.61 0.470605 183.218 -0.569543 183.321 0.369057L183.319 0.366316ZM183.19 41.2187C183.584 41.0066 184.022 41.1727 183.923 41.6091C183.621 42.9462 181.965 45.4347 181.523 46.0619C172.589 58.7012 153.448 66.5413 136.894 73.322C131.692 75.4525 126.746 77.4784 122.452 79.5158C107.607 86.5591 90.0413 97.6976 80.9942 111.694C80.7103 112.132 80.1859 113.123 79.6246 114.183C78.7736 115.791 77.8377 117.559 77.5259 117.807C77.0022 118.225 76.8274 117.653 76.6862 117.191C76.6702 117.139 76.6546 117.088 76.639 117.04C75.2676 112.814 76.0696 105.902 77.2467 101.65C83.6796 78.4673 112.387 66.0778 133.284 59.415C137.659 58.0202 142.183 56.7774 146.74 55.5257L146.74 55.5256C157.807 52.4855 169.069 49.3921 178.851 43.9377C179.557 43.5431 180.235 43.0903 180.914 42.6369C181.659 42.1396 182.404 41.6416 183.19 41.2187ZM177.545 70.9644C177.824 70.3645 177.441 69.8443 176.84 70.1218C175.121 70.9229 173.515 71.7431 171.928 72.5535C168.867 74.1163 165.878 75.6426 162.291 76.9243C157.572 78.6098 152.854 80.0268 148.161 81.4359C138.603 84.3061 129.153 87.1438 120.033 92.1525C106.085 99.8125 92.0884 112.947 95.8265 130.432C95.8772 130.669 96.0879 130.842 96.3305 130.844C96.5625 130.847 96.7677 130.696 96.842 130.476C98.0766 126.824 100.889 123.05 103.428 120.167C113.753 108.44 126.971 102.641 140.109 96.8759C150.183 92.4553 160.211 88.0554 168.85 81.0195C172.105 78.3669 175.729 74.8698 177.545 70.9644Z" fill="url(#paint0_linear_532_148)"/>
<path d="M7.636 156.587H27.324L26.772 160.819H11.684L10.396 171.491H23.644L23.092 175.723H9.844L8.142 189.845H3.542L7.636 156.587ZM51.5559 156.587C53.2119 156.587 54.7146 156.817 56.0639 157.277C57.4439 157.706 58.6092 158.365 59.5599 159.255C60.5412 160.113 61.2466 161.187 61.6759 162.475C62.1052 163.732 62.2279 165.204 62.0439 166.891C61.8599 168.209 61.4919 169.497 60.9399 170.755C60.4186 172.012 59.6519 173.162 58.6399 174.205C57.6279 175.217 56.3706 176.045 54.8679 176.689C53.3652 177.302 51.5712 177.609 49.4859 177.609H44.5639L43.0459 189.845H38.6299L42.7239 156.587H51.5559ZM49.9459 173.331C51.6939 173.331 53.0892 172.993 54.1319 172.319C55.2052 171.644 55.9872 170.816 56.4779 169.835C56.9992 168.853 57.3212 167.933 57.4439 167.075C57.5359 166.4 57.4899 165.71 57.3059 165.005C57.1526 164.269 56.8612 163.594 56.4319 162.981C56.0332 162.367 55.4352 161.861 54.6379 161.463C53.8712 161.064 52.9052 160.865 51.7399 160.865H46.5879L45.1159 173.331H49.9459ZM55.0519 175.861L62.0899 189.845H56.8919L49.7619 175.999L55.0519 175.861ZM101.946 186.579L113.354 185.475L112.802 189.845H95.7363L101.946 186.579ZM94.2643 190.167C92.2403 190.167 90.2623 189.829 88.3303 189.155C86.429 188.48 84.727 187.483 83.2243 186.165C81.7217 184.846 80.5257 183.205 79.6363 181.243C78.747 179.28 78.3023 177.011 78.3023 174.435C78.3023 172.411 78.6703 170.341 79.4063 168.225C80.173 166.078 81.3077 164.115 82.8103 162.337C84.313 160.527 86.199 159.071 88.4683 157.967C90.7377 156.832 93.375 156.265 96.3803 156.265C98.4043 156.265 100.367 156.602 102.268 157.277C104.17 157.951 105.872 158.948 107.374 160.267C108.908 161.585 110.104 163.241 110.962 165.235C111.852 167.197 112.296 169.467 112.296 172.043C112.296 174.067 111.913 176.152 111.146 178.299C110.41 180.415 109.291 182.377 107.788 184.187C106.286 185.965 104.4 187.407 102.13 188.511C99.8917 189.615 97.2697 190.167 94.2643 190.167ZM94.3103 185.889C96.6103 185.889 98.6037 185.475 100.29 184.647C101.977 183.788 103.372 182.684 104.476 181.335C105.58 179.985 106.393 178.513 106.914 176.919C107.466 175.324 107.742 173.775 107.742 172.273C107.742 170.678 107.451 169.191 106.868 167.811C106.286 166.4 105.473 165.158 104.43 164.085C103.418 162.981 102.207 162.122 100.796 161.509C99.3857 160.865 97.8523 160.543 96.1963 160.543C93.8657 160.543 91.857 160.972 90.1703 161.831C88.5143 162.659 87.1343 163.747 86.0303 165.097C84.957 166.446 84.1597 167.918 83.6383 169.513C83.117 171.107 82.8563 172.671 82.8563 174.205C82.8563 175.769 83.1323 177.256 83.6843 178.667C84.267 180.077 85.0643 181.319 86.0763 182.393C87.0883 183.466 88.2843 184.325 89.6643 184.969C91.075 185.582 92.6237 185.889 94.3103 185.889ZM156.424 190.903H156.286L133.792 164.729L134.988 165.143L132.044 189.845H127.628L131.814 155.575H131.998L154.216 181.841L153.25 181.519L156.194 156.587H160.61L156.424 190.903ZM199.011 188.143C198.49 188.419 197.784 188.741 196.895 189.109C196.006 189.477 194.978 189.783 193.813 190.029C192.678 190.274 191.452 190.397 190.133 190.397C188.201 190.397 186.284 190.09 184.383 189.477C182.512 188.863 180.81 187.928 179.277 186.671C177.744 185.413 176.517 183.819 175.597 181.887C174.677 179.924 174.217 177.609 174.217 174.941C174.217 173.193 174.416 171.445 174.815 169.697C175.244 167.949 175.888 166.277 176.747 164.683C177.636 163.088 178.756 161.677 180.105 160.451C181.485 159.224 183.141 158.258 185.073 157.553C187.005 156.817 189.228 156.449 191.743 156.449C193.982 156.449 195.975 156.786 197.723 157.461C199.471 158.135 200.928 158.902 202.093 159.761L199.793 163.763C198.934 163.057 197.846 162.398 196.527 161.785C195.208 161.171 193.736 160.819 192.111 160.727C189.903 160.665 187.971 161.003 186.315 161.739C184.659 162.475 183.279 163.502 182.175 164.821C181.071 166.109 180.243 167.596 179.691 169.283C179.139 170.969 178.863 172.748 178.863 174.619C178.863 176.305 179.139 177.854 179.691 179.265C180.243 180.675 181.025 181.887 182.037 182.899C183.049 183.911 184.26 184.708 185.671 185.291C187.082 185.843 188.63 186.119 190.317 186.119C191.452 186.119 192.464 185.996 193.353 185.751C194.273 185.505 195.086 185.229 195.791 184.923C196.496 184.585 197.11 184.294 197.631 184.049L199.011 188.143ZM224.548 178.759L214.98 156.587H220.408L228.044 174.941L226.664 175.033L238.716 156.587H244.19L229.01 178.759L227.676 189.845H223.214L224.548 178.759Z" fill="url(#paint1_linear_532_148)"/>
<defs>
<linearGradient id="paint0_linear_532_148" x1="156.062" y1="77.5" x2="80.5625" y2="155.5" gradientUnits="userSpaceOnUse">
<stop stop-color="#EDD6FF"/>
<stop offset="1" stop-color="#1B062A" stop-opacity="0"/>
</linearGradient>
<linearGradient id="paint1_linear_532_148" x1="144.22" y1="170.511" x2="-20.9657" y2="226.932" gradientUnits="userSpaceOnUse">
<stop stop-color="#EDD5FF"/>
<stop offset="1" stop-color="#EDD5FF" stop-opacity="0.15"/>
</linearGradient>
</defs>
</svg>
