<svg width="58" height="58" viewBox="0 0 58 58" fill="none" xmlns="http://www.w3.org/2000/svg">
<mask id="mask0_1_2109" style="mask-type:alpha" maskUnits="userSpaceOnUse" x="0" y="0" width="58" height="58">
<rect width="58" height="58" fill="#D9D9D9"/>
</mask>
<g mask="url(#mask0_1_2109)">
<path d="M31.7848 45.4416C23.9007 40.4459 26.9539 33.635 31.8313 25.9376C36.7088 18.2401 41.5636 12.5708 49.4477 17.5665C57.3319 22.5623 55.9536 36.4448 51.0762 44.1423C46.1987 51.8398 39.6689 50.4374 31.7848 45.4416Z" fill="url(#paint0_linear_1_2109)" fill-opacity="0.5"/>
<path d="M20.7863 50.5094C9.88877 63.9771 3.41002 63.3598 -3.04605 60.7002C-9.50212 58.0407 -13.4907 54.346 -2.59319 40.8783C8.30435 27.4106 24.4511 22.0066 30.9072 24.6662C37.3633 27.3257 31.6838 37.0418 20.7863 50.5094Z" fill="url(#paint1_linear_1_2109)"/>
<path d="M32.9315 4.76376C45.4555 7.15818 31.8036 11.6034 28.3618 20.7686C24.9199 29.9338 32.9915 40.3483 20.4675 37.9539C7.9434 35.5594 4.24286 21.4159 7.68471 12.2507C11.1265 3.08549 20.4074 2.36934 32.9315 4.76376Z" fill="url(#paint2_linear_1_2109)" fill-opacity="0.5"/>
<path d="M20.3522 44.0922C23.8963 50.3179 32.5969 49.5254 33.1805 45.4044C32.9828 44.6439 32.5576 40.8166 34.6548 38.7524L32.897 32.9751L28.5598 30.3716L24.911 31.0584C25.2718 32.4775 23.4378 38.9428 20.3522 44.0922Z" fill="#D5693C"/>
<path d="M29.0898 35.1132C29.6685 36.0581 31.7324 38.2279 34.0046 39.5635C34.2011 39.2367 34.3761 39.0278 34.6548 38.7538C32.3099 37.213 29.503 34.6586 29.266 34.333C28.9111 33.8452 28.7456 32.0845 28.6992 31.5488C28.3621 32.8242 28.5503 34.2323 29.091 35.1144L29.0898 35.1132Z" fill="#B14314"/>
<path d="M33.1805 45.4045C35.9016 45.6859 40.7164 48.1457 41.5953 49.6189C42.4741 51.0921 45.8193 61.0001 45.8193 61.0001H3.999C3.999 61.0001 6.84283 50.2492 8.75301 48.7883C10.6215 47.3593 16.7951 44.6317 20.351 44.0923C23.8951 50.3192 32.5969 49.5255 33.1793 45.4057L33.1805 45.4045Z" fill="#00BCAD"/>
<path d="M10.2404 47.8544C11.0812 49.3865 11.9898 50.9089 13.195 52.1535C15.2624 54.289 18.18 55.4439 21.0894 55.4439C22.5006 55.4439 23.9094 55.1724 25.2206 54.6084C25.6398 54.4278 26.0589 54.2165 26.4638 54.0113C27.4356 53.5198 28.4395 53.0111 29.5197 52.9067C30.439 52.817 31.3667 53.0246 32.2635 53.2261C32.8089 53.349 33.3722 53.4756 33.9343 53.537C35.9564 53.7545 38.0905 53.0762 39.6422 51.7222C40.377 51.0821 40.9867 50.2835 41.4404 49.3988C41.4154 49.3656 41.3868 49.3325 41.3571 49.2993C40.9081 50.1876 40.2996 50.9875 39.5648 51.6276C38.0369 52.962 35.9373 53.6292 33.9462 53.4141C33.3912 53.3539 32.8303 53.2286 32.2885 53.107C31.3834 52.903 30.4474 52.6929 29.5089 52.7838C28.4074 52.8919 27.3916 53.4043 26.4115 53.9007C26.0077 54.1047 25.5909 54.316 25.1741 54.4954C21.2073 56.2032 16.3163 55.2043 13.2796 52.0663C12.0851 50.8339 11.1824 49.3202 10.3464 47.7979C10.3107 47.8163 10.275 47.8359 10.2404 47.8544Z" fill="#19D1C2"/>
<path d="M5.59 55.6542C6.05087 56.1309 6.54747 56.5708 7.07742 56.9688C9.31747 58.6509 12.0791 59.5331 14.8456 59.4532C16.5759 59.4029 18.2908 58.9814 19.9485 58.5735C21.3514 58.227 22.8007 57.8707 24.2548 57.7405C27.9882 57.4063 31.7871 58.6104 34.7167 61.0001H34.9072C31.9383 58.5268 28.0573 57.276 24.244 57.6176C22.7816 57.7491 21.3276 58.1066 19.9211 58.4531C18.2694 58.8598 16.5604 59.2812 14.842 59.3304C12.097 59.4115 9.3663 58.5354 7.14768 56.8693C6.60702 56.4639 6.10089 56.0129 5.63287 55.5239C5.61858 55.5682 5.60429 55.6112 5.59 55.6542Z" fill="#19D1C2"/>
<path d="M37.5962 61.0001H37.7248C37.2377 59.7936 37.1472 58.5244 37.5188 57.4284C38.0594 55.8372 39.6088 54.5373 41.5642 54.0335C42.1299 53.8873 42.7039 53.805 43.2803 53.7657C43.266 53.7251 43.2505 53.6846 43.2362 53.644C42.6646 53.6858 42.0965 53.7694 41.5356 53.9144C39.5421 54.4279 37.9594 55.7586 37.4068 57.3878C37.0293 58.4985 37.1139 59.7813 37.5962 61.0001Z" fill="#19D1C2"/>
<path d="M29.5676 48.491C29.5176 48.5009 29.4664 48.5107 29.4163 48.5193C30.4524 49.4531 31.6219 50.4459 33.0069 50.4459H33.039C34.5217 50.4287 35.9483 49.1238 36.358 47.4086C36.439 47.0682 36.4866 46.7131 36.4985 46.3445C36.4592 46.3286 36.4211 46.3126 36.383 46.2979C36.3723 46.6726 36.3247 47.0338 36.2425 47.3791C35.9043 48.7921 34.667 50.3046 33.0378 50.323C31.7052 50.3353 30.6144 49.4334 29.5676 48.491Z" fill="#19D1C2"/>
<path d="M13.3941 46.3309C13.431 46.471 13.4727 46.6086 13.5179 46.7437C14.1122 48.5327 15.309 49.9518 16.8036 50.6362C17.4431 50.9298 18.1302 51.0724 18.8043 51.0724C19.8642 51.0724 20.8955 50.7197 21.6683 50.0439C22.1352 49.636 22.5222 49.1126 22.8961 48.6064C23.1855 48.2157 23.4678 47.8336 23.7798 47.508C23.7441 47.4883 23.7083 47.4686 23.6726 47.4478C23.3582 47.7795 23.0772 48.1592 22.8021 48.5314C22.4317 49.0327 22.0482 49.55 21.5921 49.9493C20.3596 51.0269 18.4541 51.2579 16.8524 50.5244C15.3876 49.8535 14.2134 48.4614 13.6311 46.7044C13.5846 46.5656 13.5429 46.4255 13.5048 46.2817C13.4679 46.2977 13.431 46.3137 13.3941 46.3309Z" fill="#19D1C2"/>
<path d="M14.0728 56.2832C14.0728 58.6546 13.7 60.8772 13.7 60.8772" stroke="#008C81" stroke-linecap="round" stroke-linejoin="round"/>
<path d="M39.3889 55.8667C38.9232 57.4369 40.0689 59.8574 40.2261 60.8772" stroke="#008C81" stroke-linecap="round" stroke-linejoin="round"/>
<path d="M41.0309 20.2855C41.3917 21.3458 43.0578 22.7207 43.1126 24.4384C43.1685 26.1573 41.8359 28.6774 43.6401 29.0791C42.5016 28.9354 42.1408 28.3112 42.0574 27.6072C41.9741 26.9031 43.0721 24.7824 40.6903 22.8645L38.4574 18.9978L39.7066 17.4509L41.0309 20.2867V20.2855Z" fill="#09254D"/>
<path d="M21.9054 23.6102C22.0233 25.0023 24.6504 29.471 24.9112 31.0585L28.6983 31.5475C28.7459 32.0832 28.9114 33.8414 29.2663 34.3317C29.6212 34.8195 35.7769 40.3387 37.4572 39.9C39.1376 39.4602 39.0899 37.2621 39.3031 36.7989C39.5163 36.3344 40.2034 36.284 40.2034 36.284L41.4038 33.7984L40.7464 32.254C41.2907 32.3523 42.9258 32.0599 41.9778 30.5695C41.0311 29.0803 39.8485 28.4697 40.1081 26.6377C40.1963 26.016 40.9608 25.2456 41.0084 24.7087C41.0561 24.1717 41.0323 20.385 39.3519 18.6513C38.8601 18.1439 38.0181 17.4754 36.9559 16.8193H24.0991C22.1198 19.1845 21.8185 22.6015 21.9054 23.6102Z" fill="#D5693C"/>
<path d="M38.4574 34.5542C38.592 34.9388 39.9615 36.2891 40.1866 36.4144C40.464 36.3874 41.1416 36.0716 40.907 35.1833L38.4586 34.5542H38.4574Z" fill="#B14314"/>
<path d="M38.4572 34.5541C38.955 34.9522 40.7032 35.236 40.9056 35.1832C41.1093 35.1303 41.9012 34.1769 41.4642 33.6633C40.4579 33.6105 39.6552 34.5443 38.456 34.5541H38.4572Z" fill="#B14314"/>
<path d="M40.6904 32.2232C40.5261 32.0537 40.3987 31.9591 40.307 31.9971C40.2153 32.0352 39.8866 32.4874 39.5496 32.2232C39.2113 31.9591 39.5317 31.0081 40.07 30.8201" stroke="#B14314" stroke-width="1.5" stroke-linecap="round" stroke-linejoin="round"/>
<path d="M35.5145 26.452C36.0087 25.3843 37.7045 24.9039 38.5334 24.9997C38.8502 25.7591 38.6453 27.2494 38.3286 27.6058C37.77 27.5959 36.1481 27.0774 35.5145 26.452Z" fill="#C65A2C"/>
<path d="M35.5149 26.4522C35.6483 26.7421 37.799 27.9794 38.535 28.1023C38.4254 28.0101 38.192 27.8811 38.1325 27.7939C38.2718 27.8148 38.9637 27.7632 39.1328 27.5322C38.4064 27.5371 36.3068 27.0444 35.5149 26.4509V26.4522Z" fill="#2C2F37"/>
<path d="M39.6613 23.1274C39.9126 23.362 39.7316 24.861 39.335 24.7652C38.9384 24.6694 37.6463 23.6004 36.8758 23.6889C36.1053 23.7773 35.2324 24.2614 35.0311 24.0427C34.6501 23.6262 36.1434 22.4295 37.2331 22.4848C37.9119 22.5192 39.4124 22.8939 39.6613 23.1274Z" fill="#09254D"/>
<path d="M34.2329 31.6436C33.3453 31.4999 32.6975 30.9122 32.7859 30.331C32.8743 29.7498 33.6655 29.3951 34.5531 29.5388C35.4406 29.6826 36.0885 30.2702 36.0001 30.8515C35.9116 31.4327 35.1205 31.7873 34.2329 31.6436Z" fill="#E0784D"/>
<path d="M16.5426 36.4143C16.9011 36.8161 17.275 37.1822 17.6633 37.5152C19.1161 36.7288 20.3213 35.4572 21.0418 33.9324C20.6047 35.5591 19.6532 37.0335 18.3718 38.0791C20.9989 40.0143 24.069 40.6188 26.4472 40.6213C25.9911 39.5351 25.8696 38.2991 26.1174 37.1417C26.3246 38.4367 26.9665 39.6506 27.9001 40.5426C28.5349 40.4714 29.0755 40.3559 29.4876 40.2195C25.6362 38.186 27.8156 34.2899 27.8977 33.0883C27.9811 31.8842 27.3702 31.1113 27.3416 29.4219C27.3154 27.7312 28.0633 27.1746 28.0633 27.1746C28.6468 28.9378 29.7841 30.4233 30.5903 30.8189C28.6194 28.837 31.2834 24.4949 30.5903 23.3485C30.9512 23.7208 32.3111 24.2934 33.7485 23.4849C35.1848 22.6752 33.6164 19.4241 34.6167 18.7656C35.6159 18.107 38.1703 20.885 38.9206 20.9698C39.6708 21.0571 40.2627 20.0975 39.7066 19.0813L41.0308 20.2842C40.8641 19.5396 41.6132 17.7347 41.0308 16.8181H21.0418L20.4821 17.3686C18.4957 19.8112 18.6934 25.5847 18.8208 27.6059C18.9601 29.7991 17.6275 31.4271 16.3497 31.7416L16.8213 33.4028C19.9033 33.001 19.9307 28.1035 19.6246 26.4718C22.291 32.9162 18.292 35.7238 16.5426 36.4131V36.4143Z" fill="#09254D"/>
<path d="M24.8406 38.771C24.8073 37.9577 24.9573 37.148 25.1252 36.3506C25.2931 35.5544 25.4789 34.7557 25.517 33.9423C25.5789 32.5994 25.2229 31.2393 24.5131 30.1113C25.205 32.232 25.1788 34.6329 24.4678 36.7462C24.2249 37.4736 23.901 38.1702 23.6795 38.905C23.5449 39.3571 23.4485 39.8326 23.4377 40.3044C24.0844 40.4421 24.7167 40.5293 25.3193 40.576C25.0133 40.0366 24.868 39.3989 24.8418 38.7698L24.8406 38.771Z" fill="#1A3B6B"/>
<path d="M19.6639 38.9096C20.3618 39.2979 21.0739 39.6075 21.786 39.852C21.8384 39.191 22.0409 38.5373 22.2826 37.9181C22.6435 36.9978 23.0925 36.1045 23.2866 35.1314C23.5224 33.9544 23.3675 32.7318 23.1187 31.5597C22.8698 30.385 22.5268 29.2301 22.3803 28.0383C22.2338 26.8465 22.2648 25.6178 22.7947 24.5488C21.9671 26.0834 21.6193 27.8908 21.8206 29.6356C21.9528 30.7905 22.3148 31.9037 22.4875 33.0525C22.6602 34.2001 22.6221 35.446 22.0218 36.4277C21.5741 37.1575 20.8631 37.6662 20.2486 38.2535C20.0402 38.4513 19.8401 38.6712 19.6651 38.9084L19.6639 38.9096Z" fill="#1A3B6B"/>
<path d="M22.0504 18.3726C23.2853 19.6295 25.7885 21.9677 29.9316 19.9956C28.1894 21.7576 23.5044 23.0317 22.0504 18.3726Z" fill="#1A3B6B"/>
<path d="M29.4816 29.8238C29.5543 28.9785 29.6233 27.8764 29.3066 27.176C28.9898 26.4757 27.7072 24.3169 26.3567 24.5491C25.0063 24.7826 25.1397 27.6012 25.2266 28.2388C25.3778 29.3594 26.0924 30.7539 27.6465 31.3142C28.598 31.6582 29.1815 30.8559 29.2577 30.6421C29.3351 30.4283 29.4816 29.8238 29.4816 29.8238Z" fill="#D5693C"/>
<path d="M26.3724 25.673C27.2894 25.5612 29.5437 28.0677 28.0349 30.6578" stroke="#B14314" stroke-width="1.5" stroke-linecap="round" stroke-linejoin="round"/>
<path d="M28.5264 28.5422C28.1107 27.8898 27.32 27.606 26.8055 27.805" stroke="#B14314" stroke-width="1.5" stroke-linecap="round" stroke-linejoin="round"/>
<path d="M27.4562 31.1125C27.3069 31.1125 27.1859 30.9876 27.1859 30.8336C27.1859 30.6796 27.3069 30.5547 27.4562 30.5547C27.6055 30.5547 27.7266 30.6796 27.7266 30.8336C27.7266 30.9876 27.6055 31.1125 27.4562 31.1125Z" fill="#EAF3FC"/>
<path d="M26.919 33.6608C26.919 33.9668 27.1595 34.215 27.4561 34.215C27.7526 34.215 27.9932 33.9668 27.9932 33.6608C27.9932 33.3549 27.7526 33.1067 27.4561 33.1067C27.1595 33.1067 26.919 33.3549 26.919 33.6608Z" fill="#EAF3FC"/>
<path d="M26.7404 34.7692C26.7404 35.1771 27.0608 35.5076 27.4562 35.5076C27.8515 35.5076 28.1719 35.1771 28.1719 34.7692C28.1719 34.3613 27.8515 34.0308 27.4562 34.0308C27.0608 34.0308 26.7404 34.3613 26.7404 34.7692Z" fill="#EAF3FC"/>
<path d="M41.0308 16.8195C39.585 17.6009 23.8618 17.8258 21.0417 16.8195C24.6811 16.027 39.4112 16.328 41.0308 16.8195Z" fill="#1A3B6B"/>
<path d="M36.9963 17.3318C38.3479 17.2568 39.4757 17.1561 40.2117 17.0332C40.8345 16.5466 41.3966 15.9802 41.8753 15.3278C43.1281 13.6248 43.7605 11.5373 43.8188 9.39941C42.8888 9.71027 42.0039 10.1624 41.2001 10.7338C41.131 10.7817 41.0631 10.8321 40.9953 10.8824C40.2402 11.4452 39.5602 12.1148 38.9839 12.8692C38.9565 12.9036 38.9303 12.938 38.9041 12.9736C38.8791 13.008 38.8529 13.0424 38.829 13.0768C37.9192 14.3289 37.2904 15.7971 36.9963 17.3318Z" fill="#AC74E8"/>
<path d="M42.79 10.6698L38.0026 17.2677C38.0562 17.2641 38.1086 17.2604 38.1598 17.2555L42.8864 10.7435C42.9055 10.7164 42.9007 10.6784 42.8733 10.6575C42.8483 10.6378 42.8102 10.6427 42.79 10.6698Z" fill="#864AC4"/>
<path d="M41.6099 12.4428C41.6099 12.4428 41.6182 12.4428 41.6218 12.4428C41.654 12.4367 41.6754 12.4035 41.6682 12.3703C41.5658 11.8322 41.6516 11.2461 41.904 10.7632C41.9195 10.7337 41.9088 10.6957 41.8802 10.6797C41.8516 10.6637 41.8147 10.6748 41.7992 10.7043C41.5337 11.2117 41.4432 11.8273 41.5515 12.3937C41.5575 12.4232 41.5825 12.4428 41.6099 12.4428Z" fill="#864AC4"/>
<path d="M41.112 13.8105C41.6277 13.8105 42.1422 13.6802 42.5971 13.4284C42.6257 13.4124 42.6376 13.3755 42.6221 13.3448C42.6066 13.3153 42.5709 13.3043 42.5411 13.319C41.9695 13.6348 41.3014 13.7527 40.6595 13.6507C40.6273 13.6458 40.5964 13.6692 40.5916 13.7023C40.5869 13.7355 40.6095 13.7675 40.6416 13.7724C40.7976 13.797 40.9548 13.8092 41.112 13.8092V13.8105Z" fill="#864AC4"/>
<path d="M39.5339 15.3253C39.5339 15.3253 39.5434 15.3253 39.5482 15.3241C39.5804 15.3167 39.5994 15.2835 39.5923 15.2504C39.4005 14.4235 39.4029 13.5499 39.5982 12.7242C39.6066 12.691 39.5863 12.6578 39.5542 12.6505C39.5232 12.6431 39.4898 12.6628 39.4827 12.6959C39.2826 13.5413 39.2803 14.4345 39.4756 15.2798C39.4815 15.3081 39.5065 15.3265 39.5339 15.3265V15.3253Z" fill="#864AC4"/>
<path d="M38.9969 16.7359C39.5863 16.7359 40.1794 16.5946 40.7058 16.3243C40.7355 16.3096 40.7475 16.2727 40.732 16.242C40.7177 16.2113 40.682 16.199 40.6522 16.2137C40.0079 16.5443 39.2612 16.6757 38.5479 16.5836C38.5157 16.5799 38.486 16.6032 38.4812 16.6364C38.4776 16.6696 38.5003 16.7003 38.5324 16.7052C38.686 16.7249 38.8408 16.7347 38.9969 16.7347V16.7359Z" fill="#864AC4"/>
<path d="M37.6453 17.2936C37.6405 16.9606 37.681 16.6252 37.7632 16.3057C37.7715 16.2726 37.7525 16.2394 37.7203 16.2308C37.6882 16.2222 37.656 16.2418 37.6477 16.2738C37.5631 16.6068 37.5214 16.9557 37.5262 17.301C37.5667 17.2985 37.606 17.296 37.6453 17.2936Z" fill="#864AC4"/>
<path d="M27.6607 17.4545C28.567 17.4766 29.5102 17.4889 30.4581 17.4913C30.526 12.9796 28.0728 7.5378 24.0428 4.1958C23.4021 9.55652 24.4489 14.599 27.6607 17.4545Z" fill="#00BCAD"/>
<path d="M24.7252 5.98728C25.8958 9.92765 27.3916 13.7894 29.1791 17.4816C29.2232 17.4816 29.2672 17.4816 29.3125 17.484C27.5178 13.7808 26.0137 9.90553 24.8383 5.95042C24.8288 5.91848 24.7955 5.90004 24.7645 5.90987C24.7324 5.9197 24.7157 5.95411 24.7252 5.98728Z" fill="#008C81"/>
<path d="M26.197 10.284C26.2054 10.284 26.2125 10.2828 26.2209 10.2791C26.2363 10.273 26.2482 10.2594 26.253 10.2435C26.5245 9.46081 26.6198 8.61056 26.5293 7.78489C26.5257 7.75171 26.4959 7.72591 26.4638 7.73083C26.4316 7.73451 26.4078 7.76523 26.4114 7.7984C26.4983 8.58353 26.4114 9.39077 26.1637 10.139C25.4241 9.78886 24.8108 9.23719 24.431 8.57984C24.4143 8.55035 24.3774 8.54053 24.3488 8.55896C24.3202 8.57616 24.3107 8.61425 24.3285 8.64373C24.7311 9.33917 25.386 9.92033 26.1744 10.2791C26.1816 10.2828 26.1899 10.284 26.1982 10.284H26.197Z" fill="#008C81"/>
<path d="M27.6361 13.9367C27.6587 13.9367 27.6789 13.9244 27.6896 13.9023C28.1338 12.9882 28.3935 11.9659 28.4399 10.9449C28.4411 10.9105 28.4161 10.8822 28.3827 10.881C28.3494 10.8786 28.322 10.9056 28.3208 10.94C28.2756 11.9278 28.0279 12.9182 27.6039 13.8053C26.7155 13.5915 25.8402 13.1602 25.1352 12.5864C25.109 12.5655 25.0721 12.5704 25.0518 12.5962C25.0316 12.6233 25.0363 12.6614 25.0614 12.6823C25.7926 13.2769 26.7024 13.7217 27.623 13.9355C27.6277 13.9355 27.6313 13.9367 27.6361 13.9367Z" fill="#008C81"/>
<path d="M28.8813 16.845C28.9028 16.845 28.923 16.8327 28.9337 16.8131C29.3601 15.9935 29.5804 15.0683 29.572 14.1382C29.572 14.1038 29.5446 14.0743 29.5125 14.0768C29.4791 14.0768 29.4529 14.1051 29.4529 14.1382C29.4613 15.0327 29.2529 15.9235 28.848 16.7148C28.1751 16.6005 27.5261 16.3327 26.9676 15.9382C26.9402 15.9198 26.9033 15.926 26.8854 15.9542C26.8663 15.9825 26.8735 16.0206 26.9009 16.0402C27.4856 16.4531 28.1668 16.7307 28.873 16.8438C28.8766 16.8438 28.8789 16.8438 28.8825 16.8438L28.8813 16.845Z" fill="#008C81"/>
<path d="M32.5434 17.4791C33.2508 17.4693 33.9474 17.4533 34.6191 17.4337C35.2252 16.8058 35.7421 16.1608 36.1791 15.5059C36.2363 15.4211 36.2911 15.3363 36.3447 15.2528C36.5888 14.8694 36.8079 14.4836 37.0009 14.0953C37.0473 14.0069 37.0914 13.9172 37.133 13.8275C38.7384 10.4499 38.6336 6.97025 38.5216 4.29419C36.1482 5.84232 34.4476 8.15715 33.4889 10.8799C32.7232 13.0571 32.5124 15.2196 32.5434 17.4791Z" fill="#00BCAD"/>
<path d="M33.1342 17.4694C33.1771 17.4682 33.2211 17.4682 33.264 17.467L37.5691 6.48505C37.581 6.45434 37.5667 6.41871 37.5357 6.40519C37.5059 6.3929 37.4714 6.40765 37.4583 6.43959L33.1342 17.4694Z" fill="#008C81"/>
<path d="M36.595 8.86253C36.595 8.86253 36.6045 8.86253 36.6104 8.86007C36.6426 8.85147 36.6617 8.8183 36.6533 8.78512L36.2306 7.11412C36.2222 7.08095 36.1901 7.06129 36.1579 7.06989C36.1258 7.07849 36.1067 7.11166 36.115 7.14484L36.5378 8.81584C36.5449 8.84287 36.5688 8.8613 36.595 8.8613V8.86253Z" fill="#008C81"/>
<path d="M35.6491 11.2914C35.6491 11.2914 35.6598 11.2914 35.6657 11.289L37.7831 10.6636C37.8153 10.6537 37.8331 10.6206 37.8236 10.5874C37.8141 10.5542 37.7819 10.5358 37.7498 10.5456L35.6324 11.171C35.6002 11.1808 35.5824 11.214 35.5919 11.2472C35.599 11.2742 35.6229 11.2914 35.6491 11.2914Z" fill="#008C81"/>
<path d="M34.4725 14.2478C34.4725 14.2478 34.4832 14.2478 34.4892 14.2453C34.5213 14.2355 34.5392 14.2011 34.5297 14.1691L33.7842 11.5717C33.7746 11.5398 33.7413 11.5213 33.7103 11.5299C33.6782 11.5398 33.6603 11.5742 33.6698 11.6061L34.4153 14.2035C34.4225 14.2306 34.4463 14.2478 34.4725 14.2478Z" fill="#008C81"/>
<path d="M33.4474 16.8684C33.4557 16.8684 33.4641 16.8659 33.4724 16.8622L35.3719 15.9505C35.4016 15.9358 35.4147 15.9002 35.4005 15.8695C35.3862 15.8387 35.3516 15.8252 35.3219 15.84L33.4224 16.7516C33.3926 16.7664 33.3795 16.802 33.3938 16.8327C33.4033 16.8549 33.4248 16.8684 33.4474 16.8684Z" fill="#008C81"/>
<path d="M30.5311 5.53643C30.9026 4.34585 29.5093 0.627868 28.3398 1.03087C27.1704 1.43265 29.7344 4.43677 30.5311 5.53643Z" fill="#4582EF"/>
<path d="M31.2085 8.51101C29.8152 8.07483 27.724 5.5413 28.1491 5.01665C28.5743 4.49201 30.7 6.48615 31.2085 8.51101Z" fill="#4582EF"/>
<path d="M31.542 11.4021C30.2404 11.0003 28.0789 8.83046 28.3981 8.13626C28.7172 7.44206 31.2848 9.84166 31.542 11.4021Z" fill="#4582EF"/>
<path d="M31.5659 14.3388C30.4417 14.2049 28.185 11.9146 28.5756 11.159C28.965 10.4033 31.1789 13.1322 31.5659 14.3388Z" fill="#4582EF"/>
<path d="M31.3062 17.032C30.0867 16.5565 28.1491 14.4849 28.4445 13.717C28.7398 12.9491 30.694 15.071 31.3062 17.032Z" fill="#4582EF"/>
<path d="M31.2086 8.51104C31.9065 7.84264 33.064 4.30897 32.2244 4.0276C31.3861 3.74746 31.1372 7.19267 31.2086 8.51104Z" fill="#4582EF"/>
<path d="M31.542 11.4022C32.7686 10.9021 34.1858 8.52582 33.4891 7.79475C32.7924 7.06369 31.6266 10.5249 31.542 11.4022Z" fill="#4582EF"/>
<path d="M31.566 14.3386C32.4853 14.3153 34.8004 12.2916 34.2336 11.5237C33.6667 10.7558 31.7922 13.1431 31.566 14.3386Z" fill="#4582EF"/>
<path d="M31.3059 17.0317C32.5432 16.9212 34.4213 15.7392 34.3867 14.9835C34.351 14.2279 31.8763 15.4713 31.3059 17.0317Z" fill="#4582EF"/>
<path d="M29.5878 2.98337C31.4194 7.51596 31.9767 12.6469 31.174 17.4904H31.2955C32.097 12.6309 31.5337 7.48279 29.6974 2.93545C29.6843 2.90474 29.6497 2.88999 29.6199 2.90228C29.589 2.91579 29.5747 2.95142 29.5878 2.98337Z" fill="#225DC7"/>
<path d="M31.3062 17.0934C31.3169 17.0934 31.3288 17.0897 31.3383 17.0836L32.765 16.1203C32.7924 16.1019 32.8007 16.0638 32.7817 16.0355C32.7638 16.0073 32.7269 15.9999 32.6995 16.0183L31.3157 16.9533L30.201 15.6878C30.1784 15.662 30.1415 15.6608 30.1165 15.6841C30.0915 15.7075 30.0903 15.7455 30.1129 15.7713L31.2609 17.0762C31.2728 17.0897 31.2883 17.0959 31.305 17.0959L31.3062 17.0934Z" fill="#225DC7"/>
<path d="M31.5658 14.4002C31.5824 14.4002 31.5967 14.3929 31.6086 14.3806L33.0472 12.7968C33.0699 12.7722 33.0687 12.7329 33.0448 12.7096C33.021 12.6862 32.9829 12.6875 32.9603 12.712L31.5634 14.2491L30.0891 12.7108C30.0664 12.6862 30.0283 12.6862 30.0045 12.7108C29.9807 12.7342 29.9807 12.7735 30.0045 12.798L31.5217 14.3818C31.5324 14.3941 31.5479 14.4002 31.5646 14.4002H31.5658Z" fill="#225DC7"/>
<path d="M31.542 11.4635C31.542 11.4635 31.5468 11.4635 31.5479 11.4635C31.5658 11.4611 31.5813 11.4513 31.5908 11.4365L32.7817 9.58244C32.7996 9.55418 32.7924 9.51609 32.765 9.49766C32.7376 9.47923 32.7007 9.4866 32.6829 9.51486L31.5313 11.3075L29.901 9.66476C29.8771 9.64141 29.839 9.64141 29.8164 9.66476C29.7938 9.68933 29.7938 9.72742 29.8164 9.75199L31.4979 11.4463C31.5086 11.4574 31.5241 11.4635 31.5396 11.4635H31.542Z" fill="#225DC7"/>
<path d="M31.2083 8.57228C31.2083 8.57228 31.2179 8.57228 31.2214 8.57105C31.2429 8.56614 31.2595 8.54894 31.2655 8.52805L31.7978 6.59288C31.8074 6.55971 31.7883 6.52653 31.7573 6.5167C31.7252 6.50687 31.693 6.52653 31.6835 6.55848L31.1809 8.38798L29.6864 6.68012C29.6638 6.65554 29.6268 6.65309 29.6018 6.6752C29.5768 6.69855 29.5756 6.73664 29.5971 6.76244L31.1643 8.55262C31.1762 8.56614 31.1917 8.57228 31.2083 8.57228Z" fill="#225DC7"/>
<path d="M41.729 8.45334C42.197 7.98275 42.4471 7.28978 42.3899 6.61769C42.3315 5.9198 41.9671 5.28826 41.5539 4.73413C40.962 5.54874 40.8715 6.73442 41.2764 7.66207C41.4122 7.9717 41.5432 8.1732 41.729 8.45334Z" fill="#4582EF"/>
<path d="M41.2858 10.3921C41.3977 9.99279 41.3429 9.54678 41.1381 9.18923C40.9916 8.93244 40.7761 8.72602 40.6105 8.48151C40.445 8.23701 40.3295 7.92615 40.4212 7.64355C40.1568 7.95195 40.0246 8.42377 40.0818 8.83169C40.1377 9.23961 40.3747 9.61681 40.7129 9.83674C40.8296 9.91292 40.9583 9.9719 41.0631 10.0653C41.1667 10.1587 41.3155 10.2533 41.2858 10.3921Z" fill="#4582EF"/>
<path d="M40.4746 11.7794C40.6187 11.4538 40.6032 11.0569 40.4341 10.7449C40.2769 10.4549 40.0078 10.2509 39.7827 10.0126C39.5576 9.77543 39.3611 9.45843 39.4159 9.13037C39.2349 9.50266 39.173 9.94498 39.2778 10.3468C39.3838 10.7485 39.6362 11.1085 39.9744 11.3358C40.0792 11.4059 40.1924 11.4649 40.2888 11.546C40.3853 11.627 40.4556 11.6528 40.4746 11.7806V11.7794Z" fill="#4582EF"/>
<path d="M38.8232 12.9995C39.0221 12.7759 39.1102 12.4527 39.0542 12.1542C39.0114 11.9293 38.8947 11.7278 38.7684 11.5386C38.6422 11.3494 38.5052 11.1676 38.4135 10.9587C38.323 10.7498 38.2814 10.5065 38.3576 10.2915C37.9598 10.8137 37.88 11.5841 38.1682 12.1788C38.3183 12.4896 38.5922 12.7476 38.8232 12.9995Z" fill="#4582EF"/>
<path d="M37.4499 13.6406C37.6154 13.1799 37.5428 12.6368 37.2641 12.2387C37.1355 12.0544 36.9676 11.902 36.8366 11.719C36.7068 11.5359 36.6151 11.3025 36.6711 11.0825C36.4115 11.5728 36.3519 12.1736 36.4936 12.713C36.5448 12.9108 36.6306 13.1086 36.7866 13.2352C36.8866 13.3163 37.0069 13.3617 37.1212 13.4195C37.2344 13.4772 37.3951 13.5227 37.4499 13.6406Z" fill="#4582EF"/>
<path d="M36.408 14.706C36.5247 14.4283 36.427 14.0978 36.2568 13.8508C36.0865 13.6038 35.8519 13.4134 35.6518 13.191C35.4517 12.9686 35.2802 12.6922 35.285 12.3887C35.1635 12.702 35.0921 13.0571 35.129 13.3925C35.1659 13.7279 35.3112 14.0548 35.5577 14.2759C35.803 14.4971 36.0948 14.6101 36.4068 14.706H36.408Z" fill="#4582EF"/>
<path d="M36.1699 16.4063C36.1473 16.1409 35.9472 15.9284 35.7317 15.7834C35.5161 15.6384 35.272 15.5352 35.0779 15.3607C34.8504 15.1568 34.7051 14.8594 34.6801 14.5498C34.6325 14.8263 34.5944 15.1187 34.6146 15.3976C34.6349 15.6765 34.7313 15.9616 34.9302 16.1508C35.0874 16.3007 35.297 16.3818 35.5078 16.4162C35.7186 16.4506 35.9568 16.4149 36.1699 16.4063Z" fill="#4582EF"/>
<path d="M41.3061 10.3688C41.5384 9.76181 42.1326 9.32072 42.7638 9.28386C42.9793 9.27157 43.1937 9.30229 43.4092 9.29737C43.6248 9.29368 43.8499 9.24945 44.0166 9.10815C43.913 9.48659 43.6629 9.81342 43.3497 10.0358C43.0365 10.2582 42.6459 10.3626 42.2672 10.327C42.085 10.3098 41.9052 10.2607 41.723 10.257C41.5396 10.2533 41.4252 10.2238 41.3073 10.3675L41.3061 10.3688Z" fill="#4582EF"/>
<path d="M40.5413 11.7621C40.9034 11.4415 41.4012 11.2903 41.8739 11.3554C42.0835 11.3849 42.286 11.4537 42.4956 11.4845C42.7052 11.5152 42.9314 11.5029 43.1089 11.3837C42.8886 11.8445 42.4456 12.1909 41.9537 12.272C41.4619 12.3519 40.8879 12.1307 40.5413 11.7634V11.7621Z" fill="#4582EF"/>
<path d="M38.9029 13.0572C39.1422 12.879 39.4507 12.825 39.7448 12.8446C40.039 12.8643 40.3236 12.954 40.607 13.0425C40.8905 13.1309 41.1751 13.2182 41.4692 13.2341C41.1072 13.5487 40.6309 13.6961 40.1593 13.6666C39.6865 13.6371 39.2268 13.4135 38.9029 13.0572Z" fill="#4582EF"/>
<path d="M37.5537 13.6605C38.0193 13.5094 38.5421 13.5549 38.9768 13.7859C39.3245 13.9702 39.6389 14.2724 40.0283 14.2872C39.6449 14.582 39.1328 14.6938 38.6683 14.5734C38.2051 14.453 37.7549 14.109 37.5525 13.6618L37.5537 13.6605Z" fill="#4582EF"/>
<path d="M36.4626 14.7674C36.8699 14.4873 37.4094 14.4234 37.8667 14.6028C38.2025 14.7343 38.4967 14.9861 38.8516 15.0402C38.5086 15.3117 38.0572 15.4186 37.6273 15.3695C37.1974 15.3203 36.7401 15.1102 36.4626 14.7674Z" fill="#4582EF"/>
<path d="M36.172 16.3818C36.3554 16.1373 36.615 15.9567 36.9021 15.8706C37.2415 15.7699 37.6035 15.8031 37.9548 15.8362C38.2013 15.8596 38.4478 15.8829 38.6943 15.9063C38.4442 16.3105 38.012 16.5636 37.5558 16.657C37.0997 16.7504 36.5519 16.6558 36.1708 16.3805L36.172 16.3818Z" fill="#4582EF"/>
<path d="M36.2103 17.3736C36.2508 17.3711 36.2901 17.3687 36.3294 17.3674C36.2246 16.4852 36.2294 15.7861 36.3449 15.2529C36.402 14.9899 36.4854 14.7675 36.5961 14.5845C36.7081 14.4002 36.8474 14.238 37.0011 14.0955C37.3309 13.792 37.7203 13.5831 38.024 13.4393C38.186 13.3619 38.3539 13.287 38.5159 13.2157C38.6195 13.1703 38.7243 13.1236 38.8291 13.0769C39.1327 12.938 39.4352 12.7881 39.7127 12.5965C40.326 12.1726 40.8369 11.5287 41.2001 10.7338C41.3383 10.434 41.455 10.1121 41.5479 9.77174C41.8444 8.68067 41.8884 7.53432 41.9087 6.35724C41.9087 6.32284 41.8825 6.29458 41.8503 6.29458C41.8122 6.29213 41.7896 6.32039 41.7896 6.35479C41.7694 7.52326 41.7265 8.66224 41.4323 9.73857C41.3204 10.1489 41.1739 10.5323 40.9953 10.8825C40.6511 11.5656 40.1891 12.1197 39.646 12.4945C39.4376 12.6382 39.2125 12.7599 38.9839 12.8692C38.8136 12.9516 38.6397 13.0277 38.4694 13.1027C38.3063 13.1752 38.1372 13.2489 37.974 13.3275C37.7251 13.4467 37.4191 13.6064 37.1332 13.8276C36.8915 14.0119 36.664 14.2392 36.4949 14.5193C36.3389 14.7761 36.2341 15.1042 36.1793 15.506C36.1115 16.0085 36.1222 16.629 36.2103 17.3736Z" fill="#225DC7"/>
<path d="M41.3322 10.3148C41.3381 10.3148 41.3453 10.3148 41.3512 10.3111L42.2992 9.98185C42.3301 9.97079 42.3468 9.93639 42.3361 9.90444C42.3254 9.87249 42.292 9.85529 42.2611 9.86635L41.3608 10.1797L40.9785 9.46949C40.963 9.44 40.9261 9.42894 40.8975 9.44614C40.8689 9.46212 40.8582 9.5002 40.8749 9.52969L41.281 10.2841C41.2917 10.3038 41.3119 10.316 41.3334 10.316L41.3322 10.3148Z" fill="#225DC7"/>
<path d="M40.4749 11.8407H41.3062C41.3395 11.8407 41.3657 11.8137 41.3657 11.7793C41.3657 11.7449 41.3395 11.7178 41.3062 11.7178H40.5178L40.2868 11.0224C40.2761 10.9905 40.2427 10.9733 40.2118 10.9843C40.1808 10.9954 40.1641 11.0298 40.1748 11.0629L40.419 11.8002C40.4273 11.8247 40.4499 11.8419 40.4749 11.8419V11.8407Z" fill="#225DC7"/>
<path d="M39.433 13.2697C39.458 13.2697 39.4806 13.2537 39.4889 13.2279C39.4997 13.196 39.483 13.1604 39.4508 13.1505L38.8756 12.9527L38.7708 12.2782C38.7661 12.245 38.7363 12.2216 38.703 12.2278C38.6708 12.2327 38.6482 12.2647 38.6529 12.2978L38.7625 13.0092C38.7661 13.0313 38.7816 13.051 38.803 13.0584L39.4115 13.2673C39.4175 13.2697 39.4246 13.2709 39.4306 13.2709L39.433 13.2697Z" fill="#225DC7"/>
<path d="M38.3406 13.9578C38.3668 13.9578 38.3919 13.9394 38.399 13.9111C38.4073 13.878 38.3871 13.8448 38.3561 13.8362L37.5118 13.6175L37.2474 12.9196C37.2355 12.8877 37.201 12.8717 37.17 12.8852C37.139 12.8975 37.1247 12.9331 37.1367 12.9651L37.4118 13.6924C37.4189 13.7109 37.4344 13.7244 37.4522 13.7293L38.3264 13.9554C38.3264 13.9554 38.3359 13.9578 38.3406 13.9578Z" fill="#225DC7"/>
<path d="M37.133 14.9C37.1627 14.9 37.1889 14.8767 37.1925 14.8459C37.1961 14.8128 37.1723 14.7821 37.1401 14.7784L36.472 14.701L36.1088 14.0657C36.0921 14.0362 36.0552 14.0264 36.0266 14.0436C35.9981 14.0608 35.9885 14.0989 36.0052 14.1272L36.3839 14.7882C36.3934 14.8054 36.4101 14.8152 36.428 14.8177L37.1246 14.8988C37.1246 14.8988 37.1294 14.8988 37.1318 14.8988L37.133 14.9Z" fill="#225DC7"/>
<path d="M36.1698 16.4679C36.1698 16.4679 36.1769 16.4679 36.1805 16.4679L36.8283 16.3463C36.8605 16.3401 36.8819 16.3082 36.876 16.275C36.87 16.2418 36.839 16.2185 36.8069 16.2259L36.1781 16.3438L35.4743 15.9764C35.4445 15.9617 35.4088 15.9728 35.3945 16.0035C35.3802 16.0342 35.3909 16.071 35.4207 16.0858L36.1424 16.4618C36.1507 16.4667 36.1602 16.4679 36.1698 16.4679Z" fill="#225DC7"/>
<path d="M22.0673 17.0566C22.3376 17.1008 22.6401 17.1414 22.9712 17.1782C22.7235 11.7721 15.5722 9.81477 15.1102 11.8581C14.5171 14.4923 21.1134 13.5561 22.0673 17.0566Z" fill="#00BCAD"/>
<path d="M17.0725 12.3925C18.1443 12.7168 19.5173 13.2083 20.6332 14.1347C21.6205 14.9543 22.26 16.0183 22.4374 17.1118C22.4779 17.118 22.5184 17.1229 22.5601 17.1278C22.3862 15.9913 21.7276 14.8855 20.7082 14.0389C19.5757 13.099 18.1883 12.6026 17.1058 12.2745C17.0736 12.2647 17.0415 12.2843 17.032 12.3163C17.0224 12.3495 17.0403 12.3839 17.0725 12.3925Z" fill="#008C81"/>
<path d="M23.1857 17.2014C23.4382 17.2272 23.7061 17.2517 23.986 17.2739C25.1899 10.2213 21.3648 7.34861 19.875 8.51094C17.9172 10.037 23.4417 12.6688 23.1857 17.2014Z" fill="#00BCAD"/>
<path d="M21.5742 10.4154C23.0295 12.3359 23.7226 14.808 23.4939 17.2309C23.532 17.2346 23.5713 17.2383 23.6118 17.242C23.8452 14.7883 23.1414 12.2843 21.6671 10.3393C21.6469 10.3135 21.61 10.3085 21.5838 10.3294C21.5587 10.3503 21.554 10.3884 21.5742 10.4154Z" fill="#008C81"/>
<path d="M26.4305 18.6845C26.546 18.3318 26.5186 17.9325 26.3554 17.6008C26.1923 17.269 25.8969 17.0085 25.554 16.8955C25.4766 17.258 25.5182 17.6524 25.6909 17.978C25.8636 18.3036 26.0934 18.5555 26.4305 18.6845Z" fill="#AC74E8"/>
<path d="M25.8112 19.4316C25.8362 19.031 25.6933 18.6206 25.4265 18.3282C25.1597 18.0358 24.7727 17.8625 24.3833 17.8638C24.3738 18.2643 24.5274 18.6882 24.8025 18.972C25.0776 19.2559 25.4229 19.4414 25.8112 19.4328V19.4316Z" fill="#AC74E8"/>
<path d="M25.5269 20.5239C25.1398 20.5718 24.7361 20.4587 24.4253 20.2155C24.1145 19.9722 23.9001 19.6024 23.8406 19.2043C24.286 19.1281 24.7766 19.3247 25.0672 19.681C25.2601 19.9181 25.4221 20.2327 25.5269 20.5239Z" fill="#AC74E8"/>
<path d="M25.4551 21.9835C25.0561 21.9638 24.6643 21.8164 24.3464 21.5658C24.0296 21.3151 23.789 20.9625 23.6676 20.5705C24.0677 20.5275 24.5036 20.6344 24.8191 20.8924C25.1347 21.1505 25.4015 21.5719 25.4539 21.9835H25.4551Z" fill="#AC74E8"/>
<path d="M24.0321 24.1805C24.2929 23.9618 24.4501 23.6263 24.4871 23.2823C24.524 22.9383 24.4454 22.5856 24.2953 22.276C24.1453 21.9664 23.925 21.6961 23.6749 21.4639C23.3712 21.8669 23.2092 22.3768 23.2747 22.883C23.3402 23.3892 23.6368 23.8745 24.0321 24.1805Z" fill="#AC74E8"/>
<path d="M23.6509 20.5643C23.5854 20.9808 23.377 21.3801 23.0519 21.6369C22.7268 21.8937 22.2826 21.9969 21.8907 21.8716C21.9836 21.4784 22.2016 21.111 22.5195 20.8739C22.8375 20.6368 23.2591 20.5286 23.6497 20.5643H23.6509Z" fill="#AC74E8"/>
<path d="M23.8394 19.1919C23.544 18.94 23.1213 18.8675 22.7545 18.9842C22.3889 19.101 22.0852 19.3946 21.9256 19.7546C22.2531 19.9131 22.6366 19.9635 22.9831 19.8615C23.3308 19.7595 23.6417 19.5052 23.8394 19.1919Z" fill="#AC74E8"/>
<path d="M24.3802 17.838C24.1491 17.5775 23.8181 17.4092 23.4763 17.3994C23.1345 17.3895 22.7868 17.5456 22.576 17.8233C22.6569 17.9265 22.7665 18.0112 22.882 18.0702C23.1154 18.1894 23.3917 18.198 23.6466 18.1415C23.9014 18.085 24.1515 17.9633 24.3813 17.8368L24.3802 17.838Z" fill="#AC74E8"/>
<path d="M25.541 16.8735C25.4493 16.5602 25.2409 16.2849 24.967 16.1178C24.6931 15.952 24.3585 15.8954 24.0488 15.9655C24.0929 16.2112 24.2537 16.4275 24.4502 16.5761C24.7527 16.8047 25.173 16.9521 25.541 16.8747V16.8735Z" fill="#AC74E8"/>
<path d="M23.9249 23.6482C23.932 23.6764 23.9558 23.6949 23.9832 23.6949C23.988 23.6949 23.9927 23.6949 23.9975 23.6936C24.0297 23.6863 24.0487 23.6519 24.0416 23.6199C23.7748 22.4871 23.6855 21.3235 23.7748 20.1624C23.8284 19.4621 23.9415 18.9202 24.1297 18.4558C24.2654 18.1204 24.5024 17.6793 24.8966 17.3377C24.9812 17.264 25.0729 17.1952 25.1717 17.1325C25.6683 16.8192 26.2792 16.7516 26.7639 16.9568C27.0057 17.0588 27.2153 17.2308 27.3749 17.4446C27.4249 17.447 27.4749 17.4483 27.5249 17.4495C27.3487 17.1829 27.0998 16.9654 26.8092 16.8425C26.29 16.6226 25.6385 16.6939 25.1086 17.0268C24.9669 17.1165 24.8406 17.2185 24.7275 17.3266C24.3714 17.6719 24.1499 18.0859 24.0189 18.4079C23.826 18.8846 23.7105 19.44 23.6557 20.1526C23.5652 21.3272 23.6557 22.503 23.9249 23.6482Z" fill="#864AC4"/>
<path d="M25.827 17.5528C25.8366 17.5528 25.8449 17.5504 25.8532 17.5467C25.883 17.532 25.8949 17.4951 25.8794 17.4644L25.5877 16.8611C25.5817 16.8476 25.571 16.8378 25.5579 16.8316L25.0494 16.608C25.0196 16.5945 24.9839 16.608 24.9708 16.6399C24.9577 16.6719 24.9708 16.7075 25.0018 16.721L25.49 16.9361L25.7711 17.5197C25.7818 17.5418 25.802 17.5541 25.8247 17.5541L25.827 17.5528Z" fill="#864AC4"/>
<path d="M24.8811 18.3761C24.8978 18.3761 24.9144 18.3687 24.9263 18.3552C24.9478 18.3294 24.9454 18.2913 24.9204 18.2692L24.4095 17.8146C24.4 17.806 24.3881 17.8011 24.3761 17.7998L23.6878 17.7359C23.6557 17.7323 23.6259 17.7581 23.6235 17.7912C23.6211 17.8244 23.6449 17.8551 23.6771 17.8576L24.3464 17.919L24.843 18.3601C24.8537 18.3699 24.868 18.3749 24.8823 18.3749L24.8811 18.3761Z" fill="#864AC4"/>
<path d="M24.5538 19.7496C24.5728 19.7496 24.5919 19.7398 24.6026 19.7226C24.6216 19.6943 24.6145 19.6562 24.5871 19.6378L23.8797 19.1402C23.8654 19.1303 23.8488 19.1266 23.8321 19.1316L23.2521 19.2765C23.22 19.2839 23.2009 19.3183 23.2081 19.3503C23.2164 19.3834 23.2474 19.4043 23.2795 19.3957L23.8345 19.2581L24.5192 19.7398C24.5299 19.7471 24.5407 19.7508 24.5526 19.7508L24.5538 19.7496Z" fill="#864AC4"/>
<path d="M24.3575 21.0252C24.3778 21.0252 24.3968 21.0153 24.4076 20.9969C24.4254 20.9687 24.4171 20.9306 24.3897 20.9121L23.7252 20.4772C23.7037 20.4637 23.6775 20.4649 23.6573 20.4796L23.1 20.9146C23.0738 20.9355 23.069 20.9736 23.0881 21.0006C23.1083 21.0276 23.1452 21.0326 23.1714 21.0129L23.6954 20.6037L24.3254 21.0166C24.3349 21.0227 24.3468 21.0264 24.3575 21.0264V21.0252Z" fill="#864AC4"/>
<path d="M28.5935 17.5762C28.9567 17.5517 30.2084 18.1046 29.9928 18.5186C29.7772 18.9339 28.6793 18.1709 28.5935 17.5762Z" fill="#AC74E8"/>
<path d="M28.3097 18.9301C28.7111 18.8564 29.9698 19.499 29.7257 19.9192C29.4816 20.3394 28.4205 19.5801 28.3097 18.9301Z" fill="#AC74E8"/>
<path d="M28.2312 20.2055C28.6527 20.1355 29.8817 20.9292 29.7186 21.2831C29.5554 21.6382 28.4038 21.0681 28.2312 20.2055Z" fill="#AC74E8"/>
<path d="M28.31 21.6431C28.7935 22.0952 29.2187 23.0094 28.753 23.2981C28.2874 23.5868 27.9861 22.3631 28.31 21.6431Z" fill="#AC74E8"/>
<path d="M28.2314 20.2054C27.6515 20.0997 26.725 20.7423 26.9929 21.181C27.2609 21.6196 28.1124 20.7558 28.2314 20.2054Z" fill="#AC74E8"/>
<path d="M28.3101 18.9302C27.9194 18.6341 26.65 19.1145 26.8477 19.6134C27.0453 20.1122 28.1469 19.3467 28.3101 18.9302Z" fill="#AC74E8"/>
<path d="M28.5933 17.5761C28.0359 17.3709 26.9701 17.7494 27.1916 18.1585C27.4131 18.5677 28.2753 18.043 28.5933 17.5761Z" fill="#AC74E8"/>
<path d="M28.422 22.7023C28.4279 22.7318 28.4529 22.7514 28.4803 22.7514C28.4839 22.7514 28.4887 22.7514 28.4922 22.7502C28.5244 22.7428 28.5446 22.7097 28.5375 22.6765C28.241 21.2574 28.2124 19.7522 28.4577 18.3221C28.5137 17.9891 28.5816 17.7102 28.709 17.4755C28.7423 17.4116 28.7804 17.3514 28.8233 17.2937C29.0234 17.0307 29.3961 16.8317 29.726 16.9595C29.9094 17.0307 30.0725 17.2064 30.1714 17.4399C30.1785 17.4571 30.1845 17.473 30.1916 17.4902H30.3179C30.306 17.4558 30.2941 17.4239 30.2798 17.3907C30.1666 17.1229 29.9844 16.9287 29.7677 16.844C29.3854 16.6953 28.9555 16.9201 28.7304 17.2187C28.6709 17.2986 28.6197 17.3833 28.5756 17.473C28.4518 17.7286 28.3886 18.0186 28.3398 18.3012C28.0933 19.7461 28.1207 21.2684 28.422 22.7023Z" fill="#864AC4"/>
<path d="M29.0671 18.01C29.085 18.01 29.1029 18.0014 29.1148 17.9854C29.135 17.9584 29.1291 17.9203 29.1041 17.8994L28.6301 17.5271C28.6134 17.5136 28.592 17.5111 28.5729 17.5185L28.1073 17.704C28.0763 17.7163 28.0608 17.7519 28.0727 17.7839C28.0847 17.8158 28.1192 17.8318 28.1502 17.8195L28.5848 17.6463L29.0314 17.9977C29.0421 18.0063 29.0552 18.01 29.0671 18.01Z" fill="#864AC4"/>
<path d="M28.7566 19.3847C28.7733 19.3847 28.7899 19.3773 28.8018 19.3626C28.8233 19.3368 28.8197 19.2975 28.7947 19.2766L28.3481 18.8834C28.3326 18.8687 28.31 18.865 28.2898 18.8723L27.6717 19.0972C27.6407 19.1082 27.6241 19.1439 27.6348 19.1758C27.6455 19.2078 27.68 19.225 27.711 19.2139L28.2957 19.0013L28.7161 19.3712C28.7268 19.381 28.7411 19.3859 28.7542 19.3859L28.7566 19.3847Z" fill="#864AC4"/>
<path d="M28.6741 20.6948C28.6895 20.6948 28.7062 20.6886 28.7181 20.6751C28.7408 20.6505 28.7396 20.6112 28.7157 20.5879L28.2727 20.1603C28.2501 20.1382 28.2168 20.1382 28.1929 20.1591L27.7464 20.5547C27.7214 20.5768 27.719 20.6161 27.7404 20.6419C27.7618 20.6677 27.8 20.6702 27.825 20.6481L28.2311 20.2893L28.6348 20.6788C28.6467 20.6899 28.661 20.6948 28.6753 20.6948H28.6741Z" fill="#864AC4"/>
<path d="M39.2685 17.1573C39.3137 17.1523 39.3578 17.1474 39.4018 17.1425C39.8865 15.9003 40.844 14.8584 42.0254 14.3043C43.3342 13.6912 44.9002 13.6863 46.2125 14.2908C46.2435 14.3043 46.278 14.2908 46.2923 14.26C46.3054 14.2293 46.2923 14.1925 46.2613 14.179C44.918 13.5597 43.3163 13.5646 41.9765 14.1925C40.7475 14.7687 39.7567 15.861 39.2685 17.1573Z" fill="#008C81"/>
<path d="M45.105 13.3373C44.8645 13.3176 43.9785 13.2722 43.8892 13.7796C43.7998 14.2871 44.5227 14.679 44.88 14.7318C45.2372 14.7847 45.4814 13.6899 45.105 13.3373Z" fill="#008C81"/>
<path d="M40.5734 15.2528C40.5734 15.2528 40.4245 13.6936 41.0485 13.6936C41.6714 13.6936 40.5734 15.2528 40.5734 15.2528Z" fill="#008C81"/>
<path d="M40.5738 15.2528C40.5738 15.2528 42.8365 17.0049 43.233 15.6558C43.6296 14.3068 40.5738 15.2528 40.5738 15.2528Z" fill="#008C81"/>
<path d="M45.4707 14.2219C46.1269 15.2356 47.1998 15.9519 48.3657 16.1546" stroke="#008C81" stroke-linecap="round" stroke-linejoin="round"/>
<path d="M48.612 15.9015C48.4 15.7615 48.119 15.8241 47.9832 16.0428C47.8475 16.2615 47.9082 16.5515 48.1202 16.6916C48.3321 16.8316 48.6132 16.769 48.749 16.5503C48.8847 16.3316 48.824 16.0416 48.612 15.9015Z" fill="#00BCAD"/>
<path d="M48.6967 16.2419C48.6455 16.2075 48.5503 16.2677 48.4836 16.3758C48.4169 16.4839 48.4038 16.5982 48.455 16.6314C48.5062 16.6658 48.6015 16.6055 48.6682 16.4974C48.7348 16.3893 48.7479 16.275 48.6967 16.2419Z" fill="#008C81"/>
<path d="M45.4242 13.6936C46.5937 13.7514 47.7321 14.3043 48.5205 15.1975" stroke="#008C81" stroke-linecap="round" stroke-linejoin="round"/>
<path d="M48.7907 14.7934C48.5787 14.6533 48.2977 14.716 48.1619 14.9347C48.0262 15.1534 48.0869 15.4434 48.2989 15.5834C48.5109 15.7235 48.7919 15.6608 48.9277 15.4421C49.0634 15.2234 49.0027 14.9335 48.7907 14.7934Z" fill="#00BCAD"/>
<path d="M48.8764 15.1337C48.8252 15.0993 48.7299 15.1595 48.6633 15.2676C48.5966 15.3758 48.5835 15.49 48.6347 15.5232C48.6859 15.5576 48.7811 15.4974 48.8478 15.3893C48.9145 15.2811 48.9276 15.1669 48.8764 15.1337Z" fill="#008C81"/>
<path d="M44.7169 13.7821C44.5919 14.9284 44.8503 16.3869 47.1821 17.2715C47.419 16.1964 47.3119 14.7749 46.2365 14.2047C47.4607 14.2047 48.2038 13.6838 48.5444 12.9171C46.6974 12.2573 45.4481 12.6406 44.7169 13.7833V13.7821Z" fill="#00BCAD"/>
<path d="M46.3076 14.2403C45.811 14.0179 45.2739 13.8876 44.7333 13.8594" stroke="#008C81" stroke-linecap="round" stroke-linejoin="round"/>
<rect width="58" height="58" fill="url(#paint3_linear_1_2109)"/>
</g>
<defs>
<linearGradient id="paint0_linear_1_2109" x1="48.0982" y1="51.2708" x2="34.8761" y2="28.8436" gradientUnits="userSpaceOnUse">
<stop stop-color="#BCA000"/>
<stop offset="1" stop-color="white" stop-opacity="0"/>
</linearGradient>
<linearGradient id="paint1_linear_1_2109" x1="37.8203" y1="25.013" x2="-0.416986" y2="29.1133" gradientUnits="userSpaceOnUse">
<stop stop-color="#00BCAD"/>
<stop offset="1" stop-color="white" stop-opacity="0"/>
</linearGradient>
<linearGradient id="paint2_linear_1_2109" x1="8.81665" y1="4.25793" x2="28.3025" y2="27.9889" gradientUnits="userSpaceOnUse">
<stop stop-color="#BC0093"/>
<stop offset="1" stop-color="white" stop-opacity="0"/>
</linearGradient>
<linearGradient id="paint3_linear_1_2109" x1="29" y1="30.5" x2="29" y2="55.5" gradientUnits="userSpaceOnUse">
<stop stop-color="#241033" stop-opacity="0"/>
<stop offset="1" stop-color="#241033"/>
</linearGradient>
</defs>
</svg>
